<?xml version="1.0" encoding="UTF-8" standalone="no"?>
<!-- Created with Inkscape (http://www.inkscape.org/) -->

<svg
   xmlns:i="http://ns.adobe.com/AdobeIllustrator/10.0/"
   xmlns:dc="http://purl.org/dc/elements/1.1/"
   xmlns:cc="http://creativecommons.org/ns#"
   xmlns:rdf="http://www.w3.org/1999/02/22-rdf-syntax-ns#"
   xmlns:svg="http://www.w3.org/2000/svg"
   xmlns="http://www.w3.org/2000/svg"
   xmlns:xlink="http://www.w3.org/1999/xlink"
   xmlns:sodipodi="http://sodipodi.sourceforge.net/DTD/sodipodi-0.dtd"
   xmlns:inkscape="http://www.inkscape.org/namespaces/inkscape"
   width="638.59125"
   height="203.79477"
   id="svg3303"
   version="1.1"
   inkscape:version="0.91 r13725"
   sodipodi:docname="linuxmint-bw.svg">
  <defs
     id="defs3305">
    <filter
       inkscape:collect="always"
       id="filter3469"
       style="color-interpolation-filters:sRGB">
      <feGaussianBlur
         inkscape:collect="always"
         stdDeviation="2.7119931"
         id="feGaussianBlur3471" />
    </filter>
    <filter
       inkscape:collect="always"
       id="filter3573"
       style="color-interpolation-filters:sRGB">
      <feGaussianBlur
         inkscape:collect="always"
         stdDeviation="1.6284922"
         id="feGaussianBlur3575" />
    </filter>
    <linearGradient
       inkscape:collect="always"
       xlink:href="#linearGradient3312"
       id="linearGradient3538"
       gradientUnits="userSpaceOnUse"
       gradientTransform="matrix(1.6579894,0,0,1.6579894,248.93427,-304.96673)"
       x1="61.42857"
       y1="362.14285"
       x2="116.42857"
       y2="408.57144" />
    <linearGradient
       id="linearGradient3312">
      <stop
         style="stop-color:#c7f994;stop-opacity:1;"
         offset="0"
         id="stop3314" />
      <stop
         style="stop-color:#87cf3e;stop-opacity:1;"
         offset="1"
         id="stop3316" />
    </linearGradient>
    <linearGradient
       inkscape:collect="always"
       xlink:href="#linearGradient3431"
       id="linearGradient4136"
       gradientUnits="userSpaceOnUse"
       gradientTransform="translate(0,80)"
       spreadMethod="pad"
       x1="70.491508"
       y1="416.38858"
       x2="113.64215"
       y2="375.87961" />
    <linearGradient
       id="linearGradient3431">
      <stop
         id="stop3433"
         offset="0"
         style="stop-color:#3d3d3d;stop-opacity:1;" />
      <stop
         id="stop3435"
         offset="1"
         style="stop-color:#000000;stop-opacity:0.11400651;" />
    </linearGradient>
    <filter
       inkscape:collect="always"
       id="filter3291"
       style="color-interpolation-filters:sRGB;"
       inkscape:label="Greyscale">
      <feGaussianBlur
         inkscape:collect="always"
         stdDeviation="0.400625"
         id="feGaussianBlur3293"
         result="fbSourceGraphic" />
      <feColorMatrix
         result="fbSourceGraphicAlpha"
         in="fbSourceGraphic"
         values="0 0 0 -1 0 0 0 0 -1 0 0 0 0 -1 0 0 0 0 1 0"
         id="feColorMatrix5535" />
      <feColorMatrix
         id="feColorMatrix5537"
         values="1.31 -0.47 0.157068 -0.05 0 1.31 -0.47 0.157068 -0.05 0 1.31 -0.47 0.157068 -0.05 0 0 0 0 1 0 "
         in="fbSourceGraphic"
         result="fbSourceGraphic" />
      <feColorMatrix
         result="fbSourceGraphicAlpha"
         in="fbSourceGraphic"
         values="0 0 0 -1 0 0 0 0 -1 0 0 0 0 -1 0 0 0 0 1 0"
         id="feColorMatrix5559" />
      <feColorMatrix
         id="feColorMatrix5561"
         values="1.31 -0.47 0.16 -0.05 0 1.31 -0.47 0.16 -0.05 0 1.31 -0.47 0.16 -0.05 0 0 0 0 1 0 "
         in="fbSourceGraphic" />
    </filter>
    <filter
       inkscape:collect="always"
       id="filter3546"
       style="color-interpolation-filters:sRGB;"
       inkscape:label="Greyscale">
      <feGaussianBlur
         inkscape:collect="always"
         stdDeviation="0.15992437"
         id="feGaussianBlur3548"
         result="fbSourceGraphic" />
      <feColorMatrix
         result="fbSourceGraphicAlpha"
         in="fbSourceGraphic"
         values="0 0 0 -1 0 0 0 0 -1 0 0 0 0 -1 0 0 0 0 1 0"
         id="feColorMatrix5531" />
      <feColorMatrix
         id="feColorMatrix5533"
         values="1.31 -0.47 0.157068 -0.05 0 1.31 -0.47 0.157068 -0.05 0 1.31 -0.47 0.157068 -0.05 0 0 0 0 1 0 "
         in="fbSourceGraphic"
         result="fbSourceGraphic" />
      <feColorMatrix
         result="fbSourceGraphicAlpha"
         in="fbSourceGraphic"
         values="0 0 0 -1 0 0 0 0 -1 0 0 0 0 -1 0 0 0 0 1 0"
         id="feColorMatrix5555" />
      <feColorMatrix
         id="feColorMatrix5557"
         values="1.31 -0.47 0.16 -0.05 0 1.31 -0.47 0.16 -0.05 0 1.31 -0.47 0.16 -0.05 0 0 0 0 1 0 "
         in="fbSourceGraphic" />
    </filter>
    <filter
       style="color-interpolation-filters:sRGB;"
       inkscape:label="Greyscale"
       id="filter4270">
      <feColorMatrix
         values="1.41 -0.52356 0.05 0 0 1.41 -0.52356 0.05 0 0 1.41 -0.52356 0.05 0 0 0 0 0 1 0 "
         id="feColorMatrix4272"
         result="fbSourceGraphic" />
      <feColorMatrix
         result="fbSourceGraphicAlpha"
         in="fbSourceGraphic"
         values="0 0 0 -1 0 0 0 0 -1 0 0 0 0 -1 0 0 0 0 1 0"
         id="feColorMatrix5519" />
      <feColorMatrix
         id="feColorMatrix5521"
         values="1.31 -0.47 0.157068 -0.05 0 1.31 -0.47 0.157068 -0.05 0 1.31 -0.47 0.157068 -0.05 0 0 0 0 1 0 "
         in="fbSourceGraphic"
         result="fbSourceGraphic" />
      <feColorMatrix
         result="fbSourceGraphicAlpha"
         in="fbSourceGraphic"
         values="0 0 0 -1 0 0 0 0 -1 0 0 0 0 -1 0 0 0 0 1 0"
         id="feColorMatrix5523" />
      <feColorMatrix
         id="feColorMatrix5525"
         values="1.31 -0.47 0.157068 -0.05 0 1.31 -0.47 0.157068 -0.05 0 1.31 -0.47 0.157068 -0.05 0 0 0 0 1 0 "
         in="fbSourceGraphic"
         result="fbSourceGraphic" />
      <feColorMatrix
         result="fbSourceGraphicAlpha"
         in="fbSourceGraphic"
         values="0 0 0 -1 0 0 0 0 -1 0 0 0 0 -1 0 0 0 0 1 0"
         id="feColorMatrix5527" />
      <feColorMatrix
         id="feColorMatrix5529"
         values="1.31 -0.47 0.157068 -0.05 0 1.31 -0.47 0.157068 -0.05 0 1.31 -0.47 0.157068 -0.05 0 0 0 0 1 0 "
         in="fbSourceGraphic"
         result="fbSourceGraphic" />
      <feColorMatrix
         result="fbSourceGraphicAlpha"
         in="fbSourceGraphic"
         values="0 0 0 -1 0 0 0 0 -1 0 0 0 0 -1 0 0 0 0 1 0"
         id="feColorMatrix5539" />
      <feColorMatrix
         id="feColorMatrix5541"
         values="1.31 -0.47 0.157068 -0.05 0 1.31 -0.47 0.157068 -0.05 0 1.31 -0.47 0.157068 -0.05 0 0 0 0 1 0 "
         in="fbSourceGraphic"
         result="fbSourceGraphic" />
      <feColorMatrix
         result="fbSourceGraphicAlpha"
         in="fbSourceGraphic"
         values="0 0 0 -1 0 0 0 0 -1 0 0 0 0 -1 0 0 0 0 1 0"
         id="feColorMatrix5543" />
      <feColorMatrix
         id="feColorMatrix5545"
         values="1.31 -0.47 0.16 -0.05 0 1.31 -0.47 0.16 -0.05 0 1.31 -0.47 0.16 -0.05 0 0 0 0 1 0 "
         in="fbSourceGraphic"
         result="fbSourceGraphic" />
      <feColorMatrix
         result="fbSourceGraphicAlpha"
         in="fbSourceGraphic"
         values="0 0 0 -1 0 0 0 0 -1 0 0 0 0 -1 0 0 0 0 1 0"
         id="feColorMatrix5547" />
      <feColorMatrix
         id="feColorMatrix5549"
         values="1.31 -0.47 0.16 -0.05 0 1.31 -0.47 0.16 -0.05 0 1.31 -0.47 0.16 -0.05 0 0 0 0 1 0 "
         in="fbSourceGraphic"
         result="fbSourceGraphic" />
      <feColorMatrix
         result="fbSourceGraphicAlpha"
         in="fbSourceGraphic"
         values="0 0 0 -1 0 0 0 0 -1 0 0 0 0 -1 0 0 0 0 1 0"
         id="feColorMatrix5551" />
      <feColorMatrix
         id="feColorMatrix5553"
         values="1.31 -0.47 0.16 -0.05 0 1.31 -0.47 0.16 -0.05 0 1.31 -0.47 0.16 -0.05 0 0 0 0 1 0 "
         in="fbSourceGraphic"
         result="fbSourceGraphic" />
      <feColorMatrix
         result="fbSourceGraphicAlpha"
         in="fbSourceGraphic"
         values="0 0 0 -1 0 0 0 0 -1 0 0 0 0 -1 0 0 0 0 1 0"
         id="feColorMatrix5563" />
      <feColorMatrix
         id="feColorMatrix5565"
         values="1.31 -0.47 0.16 -0.05 0 1.31 -0.47 0.16 -0.05 0 1.31 -0.47 0.16 -0.05 0 0 0 0 1 0 "
         in="fbSourceGraphic" />
    </filter>
  </defs>
  <sodipodi:namedview
     id="base"
     pagecolor="#ffffff"
     bordercolor="#666666"
     borderopacity="1.0"
     inkscape:pageopacity="0.0"
     inkscape:pageshadow="2"
     inkscape:zoom="1.4716667"
     inkscape:cx="256.74032"
     inkscape:cy="96.443382"
     inkscape:current-layer="layer1"
     inkscape:document-units="px"
     showgrid="false"
     fit-margin-top="0"
     fit-margin-left="0"
     fit-margin-right="0"
     fit-margin-bottom="0"
     inkscape:window-width="1598"
     inkscape:window-height="879"
     inkscape:window-x="0"
     inkscape:window-y="19"
     inkscape:window-maximized="1" />
  <metadata
     id="metadata3308">
    <rdf:RDF>
      <cc:Work
         rdf:about="">
        <dc:format>image/svg+xml</dc:format>
        <dc:type
           rdf:resource="http://purl.org/dc/dcmitype/StillImage" />
        <dc:title></dc:title>
      </cc:Work>
    </rdf:RDF>
  </metadata>
  <g
     id="layer1"
     inkscape:label="Layer 1"
     inkscape:groupmode="layer"
     transform="translate(-302.59617,-247.04363)">
    <g
       id="g3633"
       style="opacity:0.51327682;fill:#000000;filter:url(#filter3469)"
       transform="matrix(1.5240021,0,0,1.5240021,-36.683898,125.51876)">
      <g
         id="g3635"
         transform="translate(-10,-356)"
         style="fill:#000000">
        <g
           transform="translate(126.06579,-105.54595)"
           id="g3639"
           style="fill:#000000" />
      </g>
      <polygon
         transform="matrix(2.3979656,0,0,2.3979656,246.72565,83.158)"
         i:knockout="Off"
         points="66.376,40.96 64.168,40.96 64.168,23.48 64.168,23.48 66.376,23.48 "
         id="polygon3645"
         style="clip-rule:evenodd;display:inline;fill:#000000;fill-rule:evenodd" />
      <path
         i:knockout="Off"
         d="m 432.59676,181.37867 -5.29471,0 0,-31.7107 c 0,-1.43877 -0.51796,-2.68572 -1.55389,-3.72164 -1.03591,-1.03592 -2.28286,-1.55148 -3.72163,-1.55148 -1.45797,0 -2.70491,0.51795 -3.74083,1.55148 -1.03592,1.03592 -1.55389,2.28287 -1.55389,3.72164 l 0,31.7107 -5.27552,0 0,-31.7107 c 0,-2.89674 1.01674,-5.39063 3.08858,-7.46006 2.07184,-2.07185 4.56573,-3.11017 7.48166,-3.11017 2.89674,0 5.39062,1.03832 7.46246,3.11017 2.07184,2.06943 3.10777,4.56332 3.10777,7.46006 l 0,31.7107 0,0 z"
         id="path3647"
         style="clip-rule:evenodd;display:inline;fill:#000000;fill-rule:evenodd"
         inkscape:connector-curvature="0" />
      <path
         i:knockout="Off"
         d="m 457.68907,170.80604 c 0,2.91592 -1.03592,5.39063 -3.08858,7.46247 -2.07184,2.06945 -4.56573,3.10776 -7.48165,3.10776 -2.89674,0 -5.39063,-1.03831 -7.46247,-3.10776 -2.07184,-2.07184 -3.10776,-4.54655 -3.10776,-7.46247 l 0,-31.7083 5.2947,0 0,31.7107 c 0,1.45796 0.51796,2.68572 1.55388,3.72164 1.03592,1.03832 2.28287,1.55389 3.72165,1.55389 1.45796,0 2.7049,-0.51797 3.74082,-1.55389 1.03592,-1.03592 1.55388,-2.26128 1.55388,-3.72164 l 0,-31.7107 5.27553,0 0,31.7083 0,0 z"
         id="path3649"
         style="clip-rule:evenodd;display:inline;fill:#000000;fill-rule:evenodd"
         inkscape:connector-curvature="0" />
      <polygon
         transform="matrix(2.3979656,0,0,2.3979656,246.72565,83.158)"
         i:knockout="Off"
         points="92.056,40.96 89.624,40.96 92.824,32.144 89.624,23.328 92.056,23.328 94.04,28.8 96.024,23.328 98.448,23.328 95.248,32.144 98.448,40.96 98.448,40.96 96.024,40.96 94.04,35.488 "
         id="polygon3651"
         style="clip-rule:evenodd;display:inline;fill:#000000;fill-rule:evenodd" />
      <path
         i:knockout="Off"
         d="m 403.37407,135.93243 c -1.41959,0 -2.68572,-1.09348 -2.68572,-2.57062 l 0,-0.63306 0,0 0,-7.7886 -0.80572,0 0,-2.64735 2.6916,0.0192 0.61388,0 c 1.41959,0 2.68571,1.07429 2.68571,2.55144 l 0,11.06901 -2.49975,0 0,0 0,0 z"
         id="path3653"
         style="clip-rule:evenodd;display:inline;fill:#000000;fill-rule:evenodd"
         sodipodi:nodetypes="cccccccccccccc"
         inkscape:connector-curvature="0" />
      <g
         id="g3655"
         transform="translate(-10,-356)"
         style="fill:#000000">
        <path
           style="clip-rule:evenodd;display:inline;fill:#000000;fill-rule:evenodd"
           id="path3657"
           d="m 558.31297,537.37867 -6.8294,0 0,-59.35444 c 0,-0.40286 -0.13428,-1.03592 -0.42204,-1.86082 -0.55633,-1.59225 -1.55388,-2.80083 -3.01185,-3.62573 -1.17021,-0.63306 -2.5898,-0.94 -4.2396,-0.94 -0.0767,0 -0.21102,0.0384 -0.42204,0.0959 -0.21102,0.0768 -0.34531,0.11511 -0.42205,0.11511 -0.40285,0 -1.03591,0.24939 -1.86082,0.72898 -1.38122,0.74816 -2.3596,1.86082 -2.91592,3.31879 -0.40286,0.90163 -0.61388,1.63061 -0.61388,2.16776 l 0,59.35444 -6.82941,0 0,-59.35444 c 0,-0.0576 -0.0384,-0.36449 -0.1151,-0.92082 -0.21102,-0.84409 -0.5947,-1.66899 -1.15102,-2.49389 -1.24694,-1.72654 -2.82001,-2.74327 -4.77675,-3.01184 0.21102,0 -0.26857,0 -1.43878,0 -0.0767,0 -0.21102,0 -0.42204,0 -0.21102,0 -0.34531,0 -0.40286,0 -0.3453,0 -0.97837,0.24939 -1.88,0.72898 -2.01429,1.03592 -3.14613,2.66654 -3.43389,4.89185 -0.0576,0.0767 -0.0959,0.17265 -0.0959,0.30694 l 0,59.85322 -7.05961,0 0,-59.54628 c 0,-1.38123 0.30694,-2.83919 0.92082,-4.35471 0.28775,-0.63306 0.67143,-1.34286 1.15102,-2.18694 0.95919,-1.72654 2.43633,-3.20368 4.41226,-4.41226 1.95674,-1.20857 4.02858,-1.88001 6.17716,-2.01429 0.53715,-0.0767 1.3045,-0.1151 2.28286,-0.0959 0.0575,-0.0192 0.23021,0.0192 0.51796,0.0959 0.26857,0.0575 0.44123,0.0959 0.51796,0.0959 0.61388,0 1.78409,0.34531 3.52981,1.03592 0.26857,0.0767 0.57551,0.21102 0.92082,0.42204 1.18939,0.69062 2.43633,1.72654 3.74083,3.10777 1.11265,-1.17021 2.07184,-2.03348 2.91592,-2.58981 2.20613,-1.45796 5.08369,-2.18694 8.59431,-2.16776 0.0767,-0.0192 0.24939,0.0192 0.51796,0.0959 0.28775,0.0575 0.46041,0.0959 0.53714,0.0959 0.61388,0 1.72654,0.30694 3.31879,0.94001 3.66409,1.45795 6.11961,3.97103 7.36655,7.57756 0.61388,1.86083 0.92081,3.31878 0.92081,4.35471 l 0,59.54628 0,0 0,0 z"
           i:knockout="Off"
           inkscape:connector-curvature="0" />
        <polygon
           style="clip-rule:evenodd;display:inline;fill:#000000;fill-rule:evenodd"
           id="polygon3659"
           points="131.432,40.96 128.488,40.96 128.488,23.656 128.488,23.656 131.432,23.656 "
           i:knockout="Off"
           transform="matrix(2.3979656,0,0,2.3979656,256.72565,439.158)" />
        <path
           style="clip-rule:evenodd;display:inline;fill:#000000;fill-rule:evenodd"
           id="path3661"
           d="m 605.81188,537.37867 -6.82941,0 0,-28.12334 c 0,-0.13429 -0.0408,-0.47959 -0.1151,-1.03592 -0.55632,-2.62817 -2.16776,-4.31634 -4.87266,-5.08369 -0.42204,-0.13429 -1.24935,-0.21102 -2.49389,-0.21102 -0.0767,0 -0.2302,0.0384 -0.46041,0.1151 -0.24939,0.0767 -0.36209,0.0959 -0.36209,0.0959 -0.34771,0 -1.01913,0.24939 -1.97593,0.72899 -1.88,0.90163 -2.97347,2.49388 -3.31878,4.77674 -0.0767,0.0767 -0.1175,0.17265 -0.1175,0.30694 l 0,28.43028 -7.05721,0 0,-41.4944 7.05721,0 c -0.0552,0.63546 -0.0552,1.17021 0,1.6498 2.37878,-1.09346 4.91343,-1.6498 7.61834,-1.6498 0.0743,0 0.26617,0.0408 0.63306,0.11751 0.3477,0.0552 0.55633,0.0935 0.61388,0.0935 1.45796,0 3.24445,0.65224 5.31389,1.97592 1.74812,1.03832 3.14853,2.41715 4.18206,4.14608 1.45795,2.28287 2.18694,4.50817 2.18694,6.63757 l 0,28.5238 -0.002,0 z"
           i:knockout="Off"
           inkscape:connector-curvature="0" />
        <path
           style="clip-rule:evenodd;display:inline;fill:#000000;fill-rule:evenodd"
           id="path3663"
           d="m 626.35765,502.9247 -6.84859,0 0,21.38986 c 0.0767,0.19183 0.15347,0.51795 0.21102,0.92081 0.49878,2.22532 1.84404,3.74323 4.04777,4.56573 0.47959,0.13428 0.74816,0.21102 0.8249,0.21102 0.0767,0 0.0959,0.0384 0.0959,0.0959 0,0 0.0384,0 0.1151,0 0.0767,0 0.21103,0.0384 0.42205,0.1151 0.19184,0.0767 0.34771,0.0959 0.40286,0.0959 0.0767,0 0.19183,0 0.36448,0 0.17266,0 0.28776,0 0.3645,0 l 0,7.05961 c -2.84159,-0.13668 -5.37144,-0.86327 -7.57757,-2.16776 -1.66898,-0.97837 -3.05022,-2.3596 -4.14608,-4.16287 -1.45557,-2.34041 -2.18455,-4.64246 -2.18455,-6.84619 l 0,-49.07437 7.05721,0 0,20.64169 6.84859,0 0,7.15553 0.002,0 0,0 z"
           i:knockout="Off"
           inkscape:connector-curvature="0" />
        <path
           style="clip-rule:evenodd;display:inline;fill:#000000;fill-rule:evenodd"
           id="path3665"
           d="m 567.31014,491.56793 c -1.41959,0 -2.7049,-1.09347 -2.7049,-2.57061 l 0,-0.63307 0,0 0,-7.78859 -0.78653,0 0,-2.64736 4.1245,0.0192 0.61388,0 c 1.43877,0 2.7049,1.07429 2.7049,2.55144 l 0,11.069 -3.95185,0 0,0 0,0 z"
           i:knockout="Off"
           inkscape:connector-curvature="0" />
      </g>
      <path
         style="display:inline;fill:#000000;fill-rule:evenodd"
         d="m 379.12524,108.67277 0,62 c 0,2.91592 1.02191,5.39691 3.09375,7.46875 1.94604,1.94379 4.27802,2.97534 6.96875,3.09375 l 0,0.0313 0.53125,0 5.375,0 0,-5.3125 -5.375,0 c -1.72641,0 -2.71408,-0.49039 -3.75,-1.46875 -1.03591,-0.95679 -1.5625,-2.1067 -1.5625,-3.46875 l 0,-62.34375 -5.28125,0 z"
         id="path3667"
         sodipodi:nodetypes="ccscccccccccc"
         inkscape:connector-curvature="0" />
      <path
         id="path3669"
         style="font-style:normal;font-variant:normal;font-weight:normal;font-stretch:normal;font-size:19.75634766px;line-height:100%;font-family:Skia;text-align:start;writing-mode:lr-tb;text-anchor:start;fill:#000000;fill-opacity:1;stroke:none"
         d="m 383.875,187.15625 c -0.75965,1e-5 -1.41616,0.078 -1.96875,0.28125 -0.53543,0.19692 -0.99895,0.48081 -1.34375,0.8125 -0.38142,0.37107 -0.65338,0.77076 -0.8125,1.21875 -0.1549,0.42983 -0.21879,0.91327 -0.21875,1.4375 l 0,0.0625 -1.4375,0 -0.34375,0 0,0.34375 0,0.96875 0,0.34375 0.34375,0 1.4375,0 c -7.7e-4,1.78396 -0.02,3.42776 -0.0313,4.8125 -0.0121,1.47936 -1e-5,2.23848 0,2.34375 l 0,0.34375 0.34375,0 1.4375,0 0.34375,0 0,-0.34375 c 0,-0.10507 -0.0192,-0.9224 -0.0313,-2.46875 -0.006,-1.44534 4e-4,-3.01929 0,-4.6875 l 2.71875,0 0.375,0 0,-0.34375 0,-0.96875 0,-0.34375 -0.375,0 -2.71875,0 0,-0.0313 c 0,-0.34201 0.0366,-0.64659 0.125,-0.90625 0.0931,-0.26309 0.2294,-0.43596 0.375,-0.5625 0.22298,-0.19666 0.4727,-0.32549 0.75,-0.40625 0.27354,-0.0796 0.70222,-0.15624 1.25,-0.15625 0.0415,10e-6 0.10061,0 0.15625,0 l 0,0.0625 0.46875,-0.0625 0.15625,0 0,-0.0313 0.0625,0 -0.0625,-0.34375 0,-0.3125 -0.0313,0 -0.125,-0.78125 -0.0625,-0.28125 -0.28125,0 c -0.036,1e-5 -0.11011,1e-5 -0.21875,0 -0.10257,1e-5 -0.20279,1e-5 -0.28125,0 z m 45.34375,0 c -0.75964,1e-5 -1.41615,0.078 -1.96875,0.28125 -0.53543,0.19692 -0.99894,0.48082 -1.34375,0.8125 -0.3814,0.37107 -0.65336,0.77076 -0.8125,1.21875 -0.15489,0.42983 -0.21875,0.91329 -0.21875,1.4375 l 0,0.0625 -1.4375,0 -0.34375,0 0,0.34375 0,0.96875 0,0.34375 0.34375,0 1.4375,0 c -7.5e-4,1.78395 -0.02,3.42776 -0.0313,4.8125 -0.0121,1.47936 -0.0312,2.23882 -0.0313,2.34375 l 0,0.34375 0.375,0 1.40625,0 0.375,0 0,-0.34375 c 0,-0.10506 -0.0192,-0.9224 -0.0313,-2.46875 -0.006,-1.44534 3.9e-4,-3.01929 0,-4.6875 l 2.71875,0 0.34375,0 0,-0.34375 0,-0.96875 0,-0.34375 -0.34375,0 -2.71875,0 0,-0.0313 c 0,-0.342 0.0366,-0.64658 0.125,-0.90625 0.0931,-0.26308 0.22939,-0.43596 0.375,-0.5625 0.22299,-0.19667 0.44145,-0.3255 0.71875,-0.40625 0.27357,-0.0796 0.70222,-0.15624 1.25,-0.15625 0.0415,10e-6 0.10062,0 0.15625,0 l 0,0.0625 0.46875,-0.0625 0.1875,0 0,-0.0313 0.0625,0 -0.0625,-0.34375 0,-0.3125 -0.0625,0 -0.125,-0.78125 -0.0313,-0.28125 -0.3125,0 c -0.036,1e-5 -0.11013,1e-5 -0.21875,0 -0.10256,1e-5 -0.17155,1e-5 -0.25,0 z m 33.4375,0 0,0.34375 0.0313,3.5625 c -0.55222,0.0171 -1.12037,0.0248 -1.6875,0.125 -0.68693,0.11553 -1.29971,0.29446 -1.84375,0.53125 -0.9234,0.38879 -1.64963,0.93809 -2.15625,1.65625 -0.50618,0.71147 -0.75,1.55635 -0.75,2.46875 0,0.79263 0.23231,1.54071 0.6875,2.1875 0.45822,0.65116 1.12106,1.15393 1.96875,1.53125 0.64414,0.28622 1.32121,0.4686 2,0.5625 0.67506,0.0992 1.56846,0.15625 2.71875,0.15625 0.12036,0 0.27363,0.006 0.46875,0 0.19312,0 0.30764,-1e-5 0.34375,0 l 0.34375,0 0,-0.0313 0,-0.34375 c -8.5e-4,-0.0969 9.7e-4,-0.24164 0,-0.34375 -0.006,-0.62207 -0.0209,-1.2783 -0.0313,-2.09375 -0.006,-0.95366 -2e-5,-2.01024 0,-3.1875 -10e-6,-1.48953 -0.0121,-2.9871 0,-4.4375 0.0121,-1.45146 0.0312,-2.21959 0.0313,-2.34375 l 0,-0.34375 -0.34375,0 -1.4375,0 -0.34375,0 z m 93.9375,0 0.0313,0.34375 c 0.0181,1.26027 -10e-6,2.42361 0,3.4375 0.006,1.00995 0.0313,1.83678 0.0313,2.5 0,1.03135 -0.0192,2.33821 -0.0313,3.90625 -0.003,0.78131 0.003,1.37454 0,1.78125 -0.002,0.20336 10e-4,0.35985 0,0.46875 -10e-4,0.1089 -0.004,0.19746 0,0.15625 l -0.0625,0.375 0.40625,0 1.0625,0 0.375,0 0.34375,0 0,-0.34375 c 0,-0.0145 3.6e-4,-0.29585 0,-0.34375 -0.002,-0.23086 -0.0213,-0.60677 -0.0313,-1.65625 -0.0121,-1.26569 2e-5,-2.74689 0,-4.4375 0,-0.77503 -0.006,-1.71657 0,-2.84375 0.006,-1.13242 0.0192,-2.14164 0.0313,-3 l 0,-0.34375 -0.34375,0 -1.4375,0 -0.375,0 z m -165.21875,3.5625 -0.34375,0.0625 c -0.4264,0.10159 -0.95233,0.29663 -1.625,0.5625 -0.51337,0.2029 -1.04004,0.46091 -1.5625,0.71875 l 0,-0.75 0,-0.34375 -0.34375,0 -1.40625,0 -0.34375,0 0,0.34375 c 0.012,0.82511 0.0252,1.69362 0.0313,2.625 0.006,0.93183 0,1.6697 0,2.1875 0,1.28283 0.0119,2.19486 0,2.71875 -0.0121,0.53077 -0.0313,0.8277 -0.0313,0.9375 l 0,0.34375 0.34375,0 1.4375,0 0.34375,0 0,-0.34375 c 0,-0.12153 -0.0131,-0.59541 -0.0313,-1.5 -0.012,-0.90318 -2e-5,-1.68718 0,-2.34375 -1e-5,-0.42819 -0.006,-0.91064 0,-1.40625 0.004,-0.33505 -0.001,-0.42236 0,-0.5625 0.80104,-0.34582 1.5081,-0.66291 2.125,-0.875 0.52759,-0.17979 0.85165,-0.29416 1.15625,-0.375 l 0.15625,-0.0313 c 0.0446,-0.011 0.14923,-0.0541 0.1875,-0.0625 l 0.34375,-0.0625 -0.0625,-0.34375 -0.0937,-0.34375 -0.1875,-0.84375 -0.0937,-0.3125 z m 45.34375,0 -0.34375,0.0625 c -0.42637,0.10159 -0.95233,0.29663 -1.625,0.5625 -0.51336,0.2029 -1.04003,0.46091 -1.5625,0.71875 l 0,-0.75 0,-0.34375 -0.34375,0 -1.40625,0 -0.375,0 0.0313,0.34375 c 0.012,0.8251 0.0252,1.69362 0.0313,2.625 0.006,0.93183 -10e-6,1.6697 0,2.1875 0,1.28284 -0.0193,2.19489 -0.0313,2.71875 -0.0121,0.53078 1e-5,0.82784 0,0.9375 l 0,0.34375 0.34375,0 1.4375,0 0.34375,0 0,-0.34375 c 0,-0.12148 -0.0131,-0.5954 -0.0313,-1.5 -0.012,-0.90317 -0.0312,-1.68717 -0.0313,-2.34375 0,-0.4282 0.0252,-0.91065 0.0313,-1.40625 0.004,-0.35365 -10e-4,-0.45671 0,-0.59375 0.78484,-0.33794 1.51829,-0.63516 2.125,-0.84375 0.52758,-0.17979 0.85164,-0.29416 1.15625,-0.375 l 0.15625,-0.0313 c 0.0446,-0.011 0.14922,-0.0541 0.1875,-0.0625 l 0.34375,-0.0625 -0.0937,-0.34375 -0.0625,-0.3437 -0.1875,-0.84375 -0.0937,-0.3125 z m -39.875,0.0313 c -0.63887,1e-5 -1.23418,0.11534 -1.8125,0.34375 -0.57867,0.22253 -1.09338,0.54558 -1.53125,0.96875 -0.48555,0.46111 -0.85714,0.97276 -1.09375,1.5625 -0.2287,0.58026 -0.34375,1.2259 -0.34375,1.90625 0,0.70774 0.14125,1.39156 0.40625,2.03125 0.27193,0.64084 0.65803,1.18235 1.15625,1.625 0.4308,0.38036 0.92231,0.67639 1.46875,0.875 0.54635,0.19251 1.13466,0.28124 1.75,0.28125 0.65046,0 1.25215,-0.0794 1.78125,-0.28125 0.52825,-0.19906 1.00866,-0.49638 1.4375,-0.875 0.50914,-0.45284 0.88968,-1.01876 1.15625,-1.65625 0.22108,-0.51612 0.30262,-1.06909 0.34375,-1.625 l 0.0625,0 0,-0.375 0,-0.34375 -0.0625,0 c -0.0349,-0.55996 -0.0823,-1.1064 -0.28125,-1.59375 -0.24236,-0.59985 -0.63418,-1.12179 -1.125,-1.59375 -0.43164,-0.4174 -0.91119,-0.73119 -1.46875,-0.9375 -0.55216,-0.2128 -1.17981,-0.31249 -1.84375,-0.3125 z m 11.5,0 c -0.53574,1e-5 -1.13609,0.13126 -1.78125,0.40625 -0.41241,0.17752 -0.70478,0.37912 -1.03125,0.5625 l 0,-0.40625 0,-0.34375 -0.34375,0 -1.40625,0 -0.375,0 0,0.34375 c 0.0181,0.98078 0.0312,1.85179 0.0313,2.625 0.006,0.77541 0.0313,1.41881 0.0313,1.875 0,1.40015 -0.0193,2.39685 -0.0313,3 -0.0121,0.60305 -0.0313,0.89166 -0.0313,0.96875 l 0,0.34375 0.375,0 1.40625,0 0.375,0 0,-0.34375 c -2e-5,-0.0933 -0.0131,-0.54196 -0.0313,-1.46875 -0.0121,-0.93118 -0.0313,-1.74409 -0.0313,-2.40625 0,-0.38895 -0.006,-0.88668 0,-1.5 0.005,-0.51053 0.0304,-0.71755 0.0313,-0.875 0.48741,-0.27439 0.93632,-0.50779 1.3125,-0.65625 l 0.0313,0 c 0.42443,-0.17274 0.7569,-0.25 1.03125,-0.25 0.33981,0 0.59308,0.0686 0.71875,0.125 0.1442,0.0606 0.25276,0.12575 0.34375,0.25 0.0798,0.10871 0.15322,0.25638 0.1875,0.4375 0.0384,0.20329 0.0569,0.42809 0.0625,0.65625 0.006,0.26242 0,0.68185 0,1.25 0.006,0.56321 -10e-6,0.9734 0,1.25 0,0.83566 0.012,1.54532 0,2.15625 -0.0121,0.61429 -0.0313,0.94682 -0.0313,1.03125 l 0,0.34375 0.34375,0 1.4375,0 0.34375,0 0,-0.34375 c -2e-5,-0.0933 -0.0131,-0.40014 -0.0313,-1.03125 -0.012,-0.62751 0,-1.41861 0,-2.34375 -1e-5,-0.42257 -0.006,-0.85057 0,-1.3125 0.006,-0.47036 0,-0.92128 0,-1.375 -1e-5,-0.10439 0.004,-0.20131 0,-0.28125 0.47423,-0.25227 0.94181,-0.4703 1.3125,-0.59375 0.43486,-0.14289 0.78356,-0.21875 1.0625,-0.21875 0.50785,0 0.82304,0.11014 1,0.28125 0.164,0.15508 0.32686,0.5324 0.34375,1.15625 0.006,0.27974 -1e-5,0.70751 0,1.28125 0.006,0.56887 0,0.97037 0,1.21875 -1e-5,0.63417 0.012,1.31287 0,2.03125 -0.003,0.35961 -0.0283,0.64988 -0.0313,0.84375 -0.003,0.19387 -0.003,0.34219 0,0.3125 l -0.0313,0.375 0.375,0 1.09375,0 0.34375,0 0.34375,0 0,-0.34375 c -10e-6,-0.0305 0.002,-0.26059 0,-0.34375 -0.004,-0.16654 -0.0192,-0.25545 -0.0313,-0.6875 -0.012,-0.64438 -2e-5,-1.43869 0,-2.375 -2e-5,-0.45058 -0.006,-0.88127 0,-1.28125 0.0122,-0.41251 0.0312,-0.90591 0.0313,-1.5 -2e-5,-0.83657 -0.26942,-1.54725 -0.8125,-2.0625 -0.5396,-0.52504 -1.29135,-0.78124 -2.1875,-0.78125 -0.46909,1e-5 -1.01544,0.0974 -1.625,0.3125 -0.53852,0.19199 -1.12989,0.50189 -1.75,0.84375 -0.20304,-0.28872 -0.41306,-0.58764 -0.75,-0.78125 -0.4584,-0.26746 -0.98843,-0.37499 -1.625,-0.375 z m 33.5625,0 c -0.60976,1e-5 -1.21094,0.0907 -1.78125,0.3125 -0.56792,0.22342 -1.04439,0.54966 -1.4375,0.96875 l -0.0313,0 c -0.43671,0.46931 -0.74653,1.00634 -0.96875,1.5625 -0.22366,0.55982 -0.34376,1.16976 -0.34375,1.84375 -1e-5,0.69647 0.13959,1.35574 0.4375,1.9375 0.29474,0.56307 0.66445,1.03357 1.09375,1.40625 0.50098,0.44512 1.12685,0.78495 1.875,1.03125 0.7614,0.24266 1.63176,0.34374 2.625,0.34375 0.37343,0 0.71871,0.0173 1,0 0.2731,-0.0112 0.40368,-0.0201 0.5,-0.0313 l 0.25,-0.0313 0.0625,-0.28125 0.15625,-1.09375 0.0625,-0.4375 -0.4375,0.0313 c -0.0532,0.004 -0.24228,0.0145 -0.53125,0.0313 -0.27536,0.0163 -0.56793,0.0313 -0.90625,0.0313 -0.60895,0 -1.15019,-0.0635 -1.5625,-0.15625 -0.4169,-0.099 -0.77723,-0.25073 -1.09375,-0.4375 -0.50373,-0.29698 -0.86092,-0.63176 -1.09375,-1.0625 -0.17885,-0.33462 -0.20235,-0.74099 -0.25,-1.125 l 5.75,0 0.34375,0 0.34375,0 0,-0.375 0,-0.34375 -0.0625,0 c -0.0325,-0.59921 -0.0814,-1.15707 -0.25,-1.625 -0.20223,-0.56722 -0.4801,-1.0725 -0.875,-1.46875 -0.35566,-0.35395 -0.80127,-0.60869 -1.2812,-0.78135 -0.47969,-0.17254 -1.00001,-0.24999 -1.59375,-0.25 z m 9.4375,0 c -0.60976,1e-5 -1.21096,0.0907 -1.78125,0.3125 -0.56794,0.22343 -1.04439,0.54967 -1.4375,0.96875 -0.43672,0.46931 -0.77779,1.00634 -1,1.5625 -0.22366,0.55982 -0.31251,1.16976 -0.3125,1.84375 0,0.69647 0.13958,1.35573 0.4375,1.9375 0.29475,0.56306 0.66442,1.03356 1.09375,1.40625 0.50097,0.44512 1.12686,0.78495 1.875,1.03125 0.7614,0.24266 1.63176,0.34374 2.625,0.34375 0.37343,0 0.68749,0.0173 0.96875,0 0.27311,-0.0112 0.40366,-0.0201 0.5,-0.0313 l 0.28125,-0.0313 0.0313,-0.28125 0.15625,-1.09375 0.0625,-0.4375 -0.4375,0.0313 c -0.0531,0.004 -0.24227,0.0145 -0.53125,0.0313 -0.27534,0.0163 -0.56796,0.0313 -0.90625,0.0313 -0.60895,0 -1.11893,-0.0635 -1.53125,-0.15625 -0.4169,-0.099 -0.77727,-0.25074 -1.09375,-0.4375 -0.50374,-0.29698 -0.86092,-0.63176 -1.09375,-1.0625 -0.17912,-0.33513 -0.23372,-0.74032 -0.28125,-1.125 l 5.75,0 0.34375,0 0.375,0 0,-0.375 0,-0.34375 -0.0625,0 c -0.0325,-0.59922 -0.0814,-1.15708 -0.25,-1.625 -0.20225,-0.56721 -0.51133,-1.0725 -0.90625,-1.46875 -0.35572,-0.35384 -0.77007,-0.60859 -1.25,-0.78125 -0.47969,-0.17255 -1.03129,-0.24999 -1.625,-0.25 z m 20.03125,0 c -0.63888,1e-5 -1.26541,0.11534 -1.84375,0.34375 -0.57865,0.22253 -1.09339,0.54558 -1.53125,0.96875 -0.48555,0.46111 -0.82588,0.97276 -1.0625,1.5625 -0.2287,0.58027 -0.34373,1.22591 -0.34375,1.90625 0,0.70775 0.11003,1.39157 0.375,2.03125 l 0.0313,0 c 0.27195,0.64085 0.65807,1.18236 1.15625,1.625 0.43079,0.38036 0.92229,0.67639 1.46875,0.875 0.54634,0.19251 1.13467,0.28124 1.75,0.28125 0.65047,0 1.22091,-0.0794 1.75,-0.28125 0.52826,-0.19906 1.00867,-0.49638 1.4375,-0.875 0.50914,-0.45284 0.92094,-1.01875 1.1875,-1.65625 0.22108,-0.51612 0.30263,-1.06909 0.34375,-1.625 l 0.0625,0 0,-0.375 0,-0.34375 -0.0625,0 c -0.0348,-0.56037 -0.11347,-1.10609 -0.3125,-1.59375 -0.24237,-0.59984 -0.60292,-1.12178 -1.09375,-1.59375 -0.43164,-0.4174 -0.94242,-0.73119 -1.5,-0.9375 -0.55216,-0.2128 -1.14857,-0.31249 -1.8125,-0.3125 z m 11.46875,0 c -0.53575,1e-5 -1.10484,0.13126 -1.75,0.40625 -0.40608,0.1748 -0.7085,0.38205 -1.03125,0.5625 l 0,-0.40625 0,-0.34375 -0.375,0 -1.40625,0 -0.34375,0 0,0.34375 c 0.0181,0.98078 0.0313,1.8518 0.0313,2.625 0.006,0.7754 -10e-6,1.41878 0,1.875 0,1.40016 0.012,2.39686 0,3 -0.0121,0.60305 -0.0313,0.89258 -0.0313,0.96875 l 0,0.34375 0.34375,0 1.4375,0 0.34375,0 0,-0.34375 c -2e-5,-0.0932 -0.0131,-0.54196 -0.0313,-1.46875 -0.0121,-0.93117 0,-1.74408 0,-2.40625 0,-0.38896 -0.006,-0.8867 0,-1.5 0.005,-0.4922 -9.9e-4,-0.67993 0,-0.84375 0.50449,-0.28593 0.95684,-0.5348 1.34375,-0.6875 0.42444,-0.17274 0.78814,-0.25 1.0625,-0.25 0.33981,0 0.59305,0.0686 0.71875,0.125 0.1442,0.0606 0.25273,0.12573 0.34375,0.25 0.0798,0.10873 0.12198,0.2564 0.15625,0.4375 0.0385,0.20327 0.0569,0.42809 0.0625,0.65625 0.006,0.26237 0.0312,0.68184 0.0313,1.25 0.006,0.56322 -2e-5,0.97338 0,1.25 -10e-6,0.83567 -0.0192,1.54535 -0.0313,2.15625 -0.0121,0.61429 -1e-5,0.94673 0,1.03125 l 0,0.34375 0.34375,0 1.4375,0 0.34375,0 0,-0.34375 c -2e-5,-0.0934 -0.0131,-0.40015 -0.0313,-1.03125 -0.012,-0.62751 -1e-5,-1.41861 0,-2.34375 -1e-5,-0.42259 -0.006,-0.85059 0,-1.3125 0.006,-0.47037 -2e-5,-0.9213 0,-1.375 -1e-5,-0.10441 0.004,-0.20135 0,-0.28125 0.47276,-0.25129 0.91151,-0.47062 1.28125,-0.59375 0.43485,-0.14289 0.81479,-0.21875 1.09375,-0.21875 0.50785,0 0.82301,0.11012 1,0.28125 0.164,0.15509 0.29562,0.53241 0.3125,1.15625 0.006,0.27973 -2e-5,0.7075 0,1.28125 0.006,0.56886 0.0312,0.97032 0.0313,1.21875 -1e-5,0.63417 -0.0192,1.31288 -0.0313,2.03125 -0.003,0.35962 0.003,0.64988 0,0.84375 -0.003,0.19387 -0.003,0.34214 0,0.3125 l -0.0625,0.375 0.40625,0 1.0625,0 0.375,0 0.34375,0 0,-0.34375 c -1e-5,-0.0303 0.002,-0.26061 0,-0.34375 -0.004,-0.16652 -0.0192,-0.25545 -0.0313,-0.6875 -0.012,-0.64437 -0.0312,-1.43868 -0.0313,-2.375 0,-0.45061 0.0252,-0.88131 0.0313,-1.28125 0.0122,-0.41251 0,-0.90591 0,-1.5 0,-0.83657 -0.2694,-1.54725 -0.8125,-2.0625 -0.53959,-0.52504 -1.29134,-0.78124 -2.1875,-0.78125 -0.46909,1e-5 -0.9842,0.0974 -1.59375,0.3125 -0.53852,0.19199 -1.12988,0.50189 -1.75,0.84375 -0.20304,-0.28872 -0.41306,-0.58764 -0.75,-0.78125 -0.45841,-0.26746 -1.0197,-0.37499 -1.65625,-0.375 z m 38.8125,0 c -0.53575,1e-5 -1.10483,0.13126 -1.75,0.40625 -0.40608,0.1748 -0.70851,0.38205 -1.03125,0.5625 l 0,-0.40625 0,-0.34375 -0.34375,0 -1.4375,0 -0.34375,0 0,0.34375 c 0.0181,0.98078 0.0312,1.85179 0.0313,2.625 0.006,0.77541 0,1.41881 0,1.875 0,1.40016 0.012,2.39687 0,3 -0.0121,0.60305 -0.0313,0.8916 -0.0313,0.96875 l 0,0.34375 0.34375,0 1.4375,0 0.34375,0 0,-0.34375 c 0,-0.0936 -0.0131,-0.54195 -0.0313,-1.46875 -0.0121,-0.93118 -10e-6,-1.7441 0,-2.40625 0,-0.38896 -0.006,-0.88669 0,-1.5 0.005,-0.49219 -9.9e-4,-0.67988 0,-0.84375 0.5045,-0.28593 0.95685,-0.5348 1.34375,-0.6875 0.42442,-0.17274 0.78814,-0.25 1.0625,-0.25 0.33981,0 0.593,0.0686 0.71875,0.125 0.14419,0.0606 0.2527,0.12571 0.34375,0.25 0.0798,0.10872 0.12196,0.25638 0.15625,0.4375 0.0385,0.20326 0.0882,0.42809 0.0937,0.65625 0.006,0.2624 -3e-5,0.68184 0,1.25 0.006,0.56321 -10e-6,0.97339 0,1.25 0,0.83567 0.012,1.54535 0,2.15625 -0.0121,0.61429 -0.0313,0.94616 -0.0313,1.03125 l 0,0.34375 0.34375,0 1.4375,0 0.34375,0 0,-0.34375 c -2e-5,-0.0933 -0.0131,-0.40014 -0.0313,-1.03125 -0.012,-0.6275 2e-5,-1.41861 0,-2.34375 -1e-5,-0.42258 -0.006,-0.85058 0,-1.3125 0.006,-0.47035 10e-6,-0.92127 0,-1.375 -1e-5,-0.10442 0.004,-0.20133 0,-0.28125 0.47425,-0.25227 0.9418,-0.4703 1.3125,-0.59375 0.43485,-0.14289 0.78355,-0.21875 1.0625,-0.21875 0.50785,0 0.82304,0.11014 1,0.28125 0.16399,0.15509 0.29564,0.53242 0.3125,1.15625 0.006,0.27975 0.0313,0.70753 0.0313,1.28125 0.006,0.56884 -4e-5,0.97026 0,1.21875 -3e-5,0.63418 -0.0192,1.31288 -0.0313,2.03125 -0.003,0.35961 0.003,0.64989 0,0.84375 -0.003,0.19386 -0.003,0.34267 0,0.3125 l -0.0313,0.375 0.375,0 1.09375,0 0.34375,0 0.34375,0 0,-0.34375 c 0,-0.0307 0.002,-0.26058 0,-0.34375 -0.004,-0.16657 -0.0192,-0.25546 -0.0313,-0.6875 -0.012,-0.64436 -0.0312,-1.43867 -0.0313,-2.375 -10e-6,-0.45061 0.0252,-0.88133 0.0313,-1.28125 0.0122,-0.41248 0,-0.90589 0,-1.5 -2e-5,-0.83658 -0.26944,-1.54725 -0.8125,-2.0625 -0.5396,-0.52504 -1.29137,-0.78124 -2.1875,-0.78125 -0.4691,1e-5 -0.98419,0.0974 -1.59375,0.3125 -0.53849,0.19198 -1.12989,0.50189 -1.75,0.84375 -0.20304,-0.28873 -0.4131,-0.58764 -0.75,-0.78125 -0.45842,-0.26746 -1.01972,-0.37499 -1.65625,-0.375 z m 15,0 c -0.60975,1e-5 -1.21093,0.0907 -1.78125,0.3125 -0.56792,0.22342 -1.0444,0.54965 -1.4375,0.96875 -0.43671,0.4693 -0.7778,1.00632 -1,1.5625 -0.22366,0.55983 -0.34374,1.16978 -0.34375,1.84375 0,0.69647 0.17084,1.35574 0.46875,1.9375 0.29473,0.56307 0.63318,1.03357 1.0625,1.40625 0.50096,0.44512 1.12684,0.78495 1.875,1.03125 l 0.0313,0 c 0.7614,0.24266 1.63178,0.34374 2.625,0.34375 0.37343,0 0.6875,0.0173 0.96875,0 0.2731,-0.0112 0.40364,-0.0201 0.5,-0.0313 l 0.28125,-0.0313 0.0313,-0.28125 0.15625,-1.09375 0.0625,-0.4375 -0.4375,0.0313 c -0.0532,0.004 -0.24229,0.0145 -0.53125,0.0313 -0.27536,0.0163 -0.56792,0.0313 -0.90625,0.0313 -0.60896,0 -1.11898,-0.0635 -1.53125,-0.15625 -0.41688,-0.099 -0.77721,-0.25073 -1.09375,-0.4375 -0.50373,-0.29698 -0.86091,-0.63175 -1.09375,-1.0625 -0.17912,-0.33513 -0.23372,-0.74032 -0.28125,-1.125 l 5.75,0 0.34375,0 0.375,0 0,-0.375 0,-0.34375 -0.0625,0 c -0.0325,-0.59921 -0.0814,-1.15706 -0.25,-1.625 -0.20224,-0.56721 -0.51135,-1.0725 -0.90625,-1.46875 -0.35572,-0.35385 -0.77007,-0.60859 -1.25,-0.78125 -0.47968,-0.17255 -1.03126,-0.24999 -1.625,-0.25 z m 14.09375,0 c -0.60977,1e-5 -1.21096,0.0907 -1.78125,0.3125 -0.56794,0.22343 -1.04438,0.54967 -1.4375,0.96875 -0.43671,0.46931 -0.77779,1.00634 -1,1.5625 -0.22366,0.55983 -0.34372,1.16978 -0.34375,1.84375 0,0.69648 0.13964,1.35576 0.4375,1.9375 0.29475,0.56306 0.66444,1.03357 1.09375,1.40625 0.50098,0.44512 1.12686,0.78495 1.875,1.03125 0.76139,0.24266 1.66304,0.34374 2.65625,0.34375 0.37343,0 0.68746,0.0173 0.96875,0 0.2731,-0.0112 0.4036,-0.0201 0.5,-0.0313 l 0.25,-0.0313 0.0625,-0.28125 0.15625,-1.09375 0.0625,-0.4375 -0.4375,0.0313 c -0.0531,0.004 -0.24226,0.0145 -0.53125,0.0313 -0.27536,0.0163 -0.56796,0.0313 -0.90625,0.0313 -0.60895,0 -1.15018,-0.0635 -1.5625,-0.15625 -0.41689,-0.099 -0.77729,-0.25075 -1.09375,-0.4375 -0.50373,-0.29699 -0.82971,-0.63178 -1.0625,-1.0625 -0.17912,-0.33512 -0.2337,-0.7403 -0.28125,-1.125 l 5.75,0 0.34375,0 0.34375,0 0,-0.375 0,-0.34375 -0.0625,0 c -0.0325,-0.59922 -0.0814,-1.15708 -0.25,-1.625 -0.20223,-0.56723 -0.48013,-1.07251 -0.875,-1.46875 -0.35571,-0.35383 -0.80126,-0.60858 -1.28125,-0.78125 -0.47968,-0.17255 -1.00004,-0.24999 -1.59375,-0.25 z m 14.40625,0 c -0.60977,1e-5 -1.21097,0.0907 -1.78125,0.3125 -0.56794,0.22343 -1.04439,0.54967 -1.4375,0.96875 -0.43672,0.4693 -0.7778,1.00632 -1,1.5625 -0.22366,0.55983 -0.34373,1.16978 -0.34375,1.84375 0,0.69648 0.17088,1.35575 0.46875,1.9375 0.29475,0.56306 0.6332,1.03357 1.0625,1.40625 0.50098,0.44512 1.12687,0.78495 1.875,1.03125 0.7614,0.24266 1.66303,0.34374 2.65625,0.34375 0.37343,0 0.68752,0.0173 0.96875,0 0.2731,-0.0112 0.40363,-0.0201 0.5,-0.0313 l 0.28125,-0.0313 0.0313,-0.28125 0.15625,-1.09375 0.0625,-0.4375 -0.4375,0.0313 c -0.0532,0.004 -0.24225,0.0145 -0.53125,0.0313 -0.27536,0.0163 -0.56797,0.0313 -0.90625,0.0313 -0.60896,0 -1.11895,-0.0635 -1.53125,-0.15625 -0.41691,-0.099 -0.77728,-0.25074 -1.09375,-0.4375 -0.50374,-0.29698 -0.86091,-0.63175 -1.09375,-1.0625 -0.17912,-0.33513 -0.23371,-0.74031 -0.28125,-1.125 l 5.75,0 0.34375,0 0.34375,0 0.0313,0 -0.0313,-0.375 0,-0.34375 -0.0625,0 c -0.0325,-0.59893 -0.0502,-1.15728 -0.21875,-1.625 -0.20223,-0.5672 -0.5113,-1.07249 -0.90625,-1.46875 -0.35571,-0.35384 -0.80128,-0.60858 -1.28125,-0.78125 -0.47969,-0.17255 -1.00005,-0.24999 -1.59375,-0.25 z m 30.8125,0 c -0.42984,1e-5 -0.91171,0.096 -1.5,0.28125 -0.45138,0.13918 -1.05701,0.42473 -1.65625,0.71875 l 0,-0.4375 0,-0.34375 -0.34375,0 -1.4375,0 -0.34375,0 0,0.34375 c 0.0181,0.88545 0.0312,1.71556 0.0313,2.5 0.006,0.78643 -10e-6,1.47756 0,2.0625 0,1.27166 0.012,2.23175 0,2.875 -0.0121,0.64211 -0.0313,0.9553 -0.0313,1.03125 l 0,0.34375 0.34375,0 1.4375,0 0.34375,0 0,-0.34375 c -2e-5,-0.0913 -0.0131,-0.52189 -0.0313,-1.4375 -0.0121,-0.9144 -3e-5,-1.6984 0,-2.34375 0,-0.49539 -0.006,-1.05431 0,-1.65625 0.005,-0.45224 -10e-4,-0.5998 0,-0.75 0.48765,-0.26576 0.96334,-0.51206 1.4375,-0.6875 0.51901,-0.19202 0.94552,-0.28125 1.25,-0.28125 0.5561,0 0.8472,0.14014 1,0.3125 0.16187,0.18262 0.2956,0.55776 0.3125,1.15625 0.006,0.25658 0.0313,0.68186 0.0313,1.25 0.006,0.5632 2e-5,0.99344 0,1.28125 -10e-6,0.19975 -0.0192,0.71771 -0.0313,1.59375 -0.006,0.87576 0.005,1.42688 0,1.5625 l -0.0313,0.34375 0.375,0 1.09375,0 0.34375,0 0.34375,0 0,-0.34375 c -10e-6,-0.0259 10e-4,-0.27295 0,-0.34375 -0.004,-0.18038 -0.0183,-0.3297 -0.0313,-0.875 -0.0121,-0.76355 -1e-5,-1.36978 0,-1.875 -1e-5,-0.31595 -0.006,-0.74286 0,-1.25 0.0122,-0.51732 -1e-5,-1.10714 0,-1.8125 -1e-5,-0.85179 -0.26787,-1.577 -0.8125,-2.09375 -0.53418,-0.51975 -1.25299,-0.78124 -2.09375,-0.78125 z m 17.59375,0 c -0.60976,1e-5 -1.21096,0.0907 -1.78125,0.3125 -0.56793,0.22343 -1.04439,0.54967 -1.4375,0.96875 -0.43672,0.46931 -0.77778,1.00634 -1,1.5625 -0.22364,0.55981 -0.34378,1.16975 -0.34375,1.84375 0,0.69647 0.17082,1.35573 0.46875,1.9375 0.29475,0.56307 0.66447,1.03358 1.09375,1.40625 0.50097,0.44513 1.12688,0.78495 1.875,1.03125 0.76138,0.24266 1.63175,0.34374 2.625,0.34375 0.37343,0 0.68748,0.0173 0.96875,0 0.27311,-0.0112 0.40363,-0.0201 0.5,-0.0313 l 0.28125,-0.0313 0.0313,-0.28125 0.15625,-1.09375 0.0625,-0.4375 -0.4375,0.0313 c -0.0532,0.004 -0.24225,0.0145 -0.53125,0.0313 -0.27534,0.0163 -0.56796,0.0313 -0.90625,0.0313 -0.60896,0 -1.11893,-0.0635 -1.53125,-0.15625 -0.4169,-0.099 -0.77727,-0.25074 -1.09375,-0.4375 -0.50373,-0.29699 -0.86095,-0.63178 -1.09375,-1.0625 -0.17912,-0.33513 -0.23373,-0.74032 -0.28125,-1.125 l 5.75,0 0.34375,0 0.375,0 0,-0.375 0,-0.34375 -0.0625,0 c -0.0325,-0.59922 -0.0814,-1.15709 -0.25,-1.625 -0.20223,-0.56723 -0.51138,-1.07251 -0.90625,-1.46875 -0.35573,-0.35385 -0.7701,-0.60859 -1.25,-0.78125 -0.47969,-0.17255 -1.03128,-0.24999 -1.625,-0.25 z m -105.15625,0.125 c -0.2663,0.0112 -0.43407,0.0253 -0.53125,0.0313 l -0.28125,0.0313 -0.0313,0.28125 -0.15625,1.125 -0.0625,0.40625 0.4375,-0.0313 c 0.32643,-0.0168 0.56123,-0.02 0.75,-0.0313 0.18368,-0.0106 0.42072,-0.0313 0.6875,-0.0313 0.4225,0 0.78858,0.0207 1.09375,0.0625 0.30185,0.0362 0.57721,0.0985 0.8125,0.1875 0.33561,0.12613 0.56503,0.31583 0.71875,0.53125 0.0953,0.13358 0.10495,0.36738 0.15625,0.5625 -0.65848,0.0599 -1.29943,0.11712 -1.84375,0.21875 -0.66545,0.11968 -1.2005,0.27439 -1.625,0.4375 -0.6662,0.25479 -1.19278,0.59121 -1.59375,1.03125 -0.40376,0.44435 -0.62501,1.01767 -0.625,1.625 0,0.57107 0.18416,1.08065 0.53125,1.5 0.33967,0.40216 0.78683,0.71264 1.3125,0.9375 0.39513,0.17058 0.85272,0.28768 1.375,0.375 0.51937,0.0868 1.01663,0.15624 1.53125,0.15625 0.79631,0 1.45361,-0.0223 1.96875,-0.0625 0.50125,-0.0335 0.75875,-0.0546 0.84375,-0.0625 l 0.34375,-0.0313 0,-0.3125 c -10e-6,-0.0562 -0.006,-0.53547 0,-1.40625 0.005,-0.7761 -5.9e-4,-1.84909 0,-3.03125 l 0,-0.375 0,-0.34375 -0.0625,0 c -0.0253,-0.63608 -0.0498,-1.21543 -0.21875,-1.625 -0.19484,-0.4785 -0.48828,-0.89242 -0.875,-1.21875 -0.41609,-0.347 -0.92811,-0.57476 -1.53125,-0.71875 -0.58953,-0.14817 -1.26503,-0.21874 -2,-0.21875 -0.4689,10e-6 -0.84119,-0.0175 -1.125,0 z m 68.75,0 c -0.94198,1e-5 -1.75539,0.0521 -2.4375,0.15625 -0.68133,0.0992 -1.31926,0.29692 -1.90625,0.5625 -0.82244,0.37153 -1.49762,0.88545 -2,1.53125 -0.51013,0.6557 -0.74998,1.43039 -0.75,2.28125 0,0.83107 0.15827,1.56038 0.53125,2.15625 0.35917,0.57387 0.83146,1.01852 1.40625,1.375 0.57942,0.37337 1.2688,0.64354 2.0625,0.8125 0.77123,0.15854 1.54708,0.24787 2.28125,0.25 -0.0531,0.34468 -0.10958,0.68892 -0.28125,0.9375 -0.2183,0.32043 -0.6185,0.61318 -1.28125,0.84375 -0.42945,0.14635 -0.93016,0.22768 -1.46875,0.28125 -0.54775,0.0599 -1.17762,0.11397 -1.875,0.125 l -0.375,0 0.0313,0.375 0.15625,1.09375 0.0313,0.28125 0.3125,0 c 1.06619,0 1.98279,-0.0675 2.75,-0.21875 0.75855,-0.14379 1.42024,-0.33111 1.96875,-0.59375 0.69903,-0.34725 1.23849,-0.83956 1.625,-1.4375 0.40793,-0.62036 0.59373,-1.43941 0.59375,-2.4375 -10e-6,-0.52048 0.006,-1.09259 0,-1.71875 -0.006,-0.62411 0,-1.24202 0,-1.84375 -10e-6,-0.88678 -0.006,-1.79941 0,-2.78125 0.01,-0.77877 0.0293,-1.07058 0.0313,-1.3125 5.2e-4,-0.0633 0,-0.31589 0,-0.34375 l 0,-0.375 -0.375,0 c -0.12496,1e-5 -0.22891,0 -0.34375,0 -0.0626,0 -0.12786,0 -0.1875,0 -0.16293,1e-5 -0.33106,1e-5 -0.5,0 z m 5.1875,0 c -0.26632,0.0112 -0.43409,0.0253 -0.53125,0.0313 l -0.28125,0.0313 -0.0313,0.28125 -0.15625,1.125 -0.0625,0.40625 0.4375,-0.0313 c 0.32642,-0.0168 0.56121,-0.02 0.75,-0.0313 0.18366,-0.0106 0.4207,-0.0313 0.6875,-0.0313 0.42252,0 0.7886,0.0207 1.09375,0.0625 0.30184,0.0362 0.5772,0.0985 0.8125,0.1875 0.33563,0.12613 0.5651,0.31589 0.71875,0.53125 0.0968,0.1357 0.13614,0.36319 0.1875,0.5625 -0.66095,0.06 -1.32898,0.1168 -1.875,0.21875 -0.66544,0.11968 -1.20051,0.27438 -1.625,0.4375 -0.6662,0.25479 -1.19278,0.5912 -1.59375,1.03125 -0.40379,0.44436 -0.62498,0.98644 -0.625,1.59375 0,0.57107 0.18414,1.1119 0.53125,1.53125 0.33968,0.40217 0.78688,0.71264 1.3125,0.9375 0.39514,0.17058 0.85273,0.28768 1.375,0.375 0.51937,0.0868 1.01665,0.15624 1.53125,0.15625 0.79633,0 1.4536,-0.0223 1.96875,-0.0625 0.50125,-0.0335 0.75877,-0.0546 0.84375,-0.0625 l 0.34375,-0.0313 0,-0.3125 c -10e-6,-0.0561 -0.006,-0.53546 0,-1.40625 0.005,-0.77611 -6.1e-4,-1.8491 0,-3.03125 l 0,-0.375 0,-0.34375 -0.0625,0 c -0.0253,-0.63608 -0.0498,-1.21543 -0.21875,-1.625 -0.19485,-0.47851 -0.48833,-0.89243 -0.875,-1.21875 -0.41608,-0.347 -0.92807,-0.57476 -1.53125,-0.71875 -0.58952,-0.14817 -1.26505,-0.21874 -2,-0.21875 -0.46888,10e-6 -0.84123,-0.0175 -1.125,0 z m -77.78125,0.0625 c -0.83364,1e-5 -1.61968,0.071 -2.40625,0.25 -0.7836,0.17395 -1.48095,0.43459 -2.0625,0.78125 -0.64564,0.38223 -1.15921,0.89234 -1.5625,1.5 -0.41021,0.61202 -0.62501,1.29621 -0.625,2.03125 0,0.81204 0.20872,1.58643 0.65625,2.25 0.44587,0.66111 1.06787,1.17104 1.84375,1.5625 0.56785,0.28328 1.20486,0.51144 1.90625,0.65625 0.70103,0.13895 1.45141,0.18749 2.25,0.1875 0.0724,0 0.17867,-10e-6 0.28125,0 0.10863,0 0.17051,-10e-6 0.21875,0 l 0.34375,0 0,-0.3125 0.0937,-0.8125 0.0313,0 0,-0.3125 0.0313,-0.34375 -0.0313,0 0,-0.0313 -0.3125,0 -0.0313,0 -0.3125,-0.0313 0,0.0313 c -0.0927,1e-5 -0.17279,1e-5 -0.25,0 -0.5749,1e-5 -1.14494,-0.0444 -1.65625,-0.125 -0.50499,-0.0796 -0.92254,-0.19979 -1.3125,-0.375 l -0.0313,0 c -0.49479,-0.21868 -0.86116,-0.51417 -1.15625,-0.90625 -0.27799,-0.38097 -0.43751,-0.84261 -0.4375,-1.4375 0,-0.47242 0.15601,-0.9148 0.46875,-1.34375 0.30937,-0.42434 0.70861,-0.73514 1.25,-0.9375 l 0.0313,0 c 0.42334,-0.16402 0.83544,-0.27502 1.28125,-0.34375 0.45094,-0.0739 1.03123,-0.12499 1.6875,-0.125 0.0423,1e-5 0.0767,1e-5 0.125,0 0.0543,1e-5 0.11397,1e-5 0.15625,0 l 0.375,0 -0.0313,-0.375 -0.0937,-1.125 0,-0.3125 -0.34375,0 c -0.0422,1e-5 -0.0839,1e-5 -0.15625,0 -0.0664,1e-5 -0.15243,1e-5 -0.21875,0 z m 102.65625,0 c -0.83365,1e-5 -1.61967,0.071 -2.40625,0.25 -0.78361,0.17395 -1.48095,0.43459 -2.0625,0.78125 -0.64565,0.38223 -1.19047,0.89234 -1.59375,1.5 -0.41022,0.61202 -0.59377,1.2962 -0.59375,2.03125 0,0.81204 0.20871,1.58642 0.65625,2.25 0.44586,0.66111 1.0679,1.17104 1.84375,1.5625 0.56786,0.28328 1.20489,0.51144 1.90625,0.65625 0.70105,0.13895 1.4514,0.18749 2.25,0.1875 0.0724,0 0.17866,-10e-6 0.28125,0 0.10861,0 0.1705,-10e-6 0.21875,0 l 0.3125,0 0.0313,-0.3125 0.0937,-0.8125 0.0313,0 0,-0.3125 0.0313,-0.34375 -0.0313,0 0,-0.0313 -0.3125,0 -0.0313,0 -0.3125,-0.0313 0,0.0313 c -0.0952,1e-5 -0.2023,1e-5 -0.28125,0 -0.57488,1e-5 -1.11369,-0.0444 -1.625,-0.125 -0.50499,-0.0796 -0.95376,-0.19979 -1.34375,-0.375 -0.49478,-0.21868 -0.86116,-0.51417 -1.15625,-0.90625 -0.27799,-0.38096 -0.4375,-0.8426 -0.4375,-1.4375 0,-0.47243 0.15601,-0.91481 0.46875,-1.34375 0.3094,-0.42436 0.7086,-0.73515 1.25,-0.9375 0.42331,-0.16402 0.86669,-0.27502 1.3125,-0.34375 0.45092,-0.0739 1.03124,-0.12499 1.6875,-0.125 0.0423,1e-5 0.0767,1e-5 0.125,0 0.0543,1e-5 0.11398,1e-5 0.15625,0 l 0.34375,0 0,-0.375 -0.0937,-1.125 0,-0.3125 -0.34375,0 c -0.0422,1e-5 -0.0838,1e-5 -0.15625,0 -0.0664,1e-5 -0.15243,1e-5 -0.21875,0 z m -165.40625,1.5 c 0.60749,1e-5 1.06494,0.17036 1.40625,0.5 0.24983,0.23445 0.35104,0.61942 0.46875,1 l -3.90625,0 c 0.16147,-0.37249 0.31836,-0.75885 0.59375,-1 0.38792,-0.34447 0.83095,-0.5 1.4375,-0.5 z m 9.46875,0 c 0.60747,1e-5 1.03371,0.17037 1.375,0.5 0.24983,0.23445 0.35103,0.61941 0.46875,1 l -3.90625,0 c 0.16147,-0.37249 0.31837,-0.75885 0.59375,-1 0.38794,-0.34448 0.8622,-0.5 1.46875,-0.5 z m 85.3125,0 c 0.60749,1e-5 1.03371,0.17037 1.375,0.5 0.24984,0.23445 0.35103,0.61942 0.46875,1 l -3.90625,0 c 0.16148,-0.37249 0.31838,-0.75885 0.59375,-1 0.38792,-0.34447 0.86221,-0.5 1.46875,-0.5 z m 14.0625,0 c 0.60749,1e-5 1.06491,0.17035 1.40625,0.5 0.24983,0.23445 0.35104,0.61942 0.46875,1 l -3.90625,0 c 0.16147,-0.37249 0.31836,-0.75885 0.59375,-1 0.38793,-0.34447 0.83098,-0.5 1.4375,-0.5 z m 14.4375,0 c 0.6075,1e-5 1.03365,0.17034 1.375,0.5 0.24983,0.23445 0.35104,0.61942 0.46875,1 l -3.90625,0 c 0.16147,-0.37249 0.31836,-0.75886 0.59375,-1 0.38792,-0.34447 0.86223,-0.5 1.46875,-0.5 z m 48.40625,0 c 0.6075,1e-5 1.03367,0.17035 1.375,0.5 0.24983,0.23445 0.35102,0.61941 0.46875,1 l -3.90625,0 c 0.16147,-0.37249 0.31836,-0.75885 0.59375,-1 0.38791,-0.34447 0.86224,-0.5 1.46875,-0.5 z M 396.84375,192.5 c 0.31096,1e-5 0.62513,0.0532 0.90625,0.15625 0.28602,0.098 0.52036,0.22746 0.71875,0.40625 l 0,0.0313 c 0.34325,0.30264 0.58754,0.64799 0.75,1.09375 0.17275,0.45881 0.25,0.9231 0.25,1.40625 -10e-6,0.46037 -0.0851,0.89549 -0.25,1.3125 -0.16355,0.41349 -0.38115,0.77414 -0.6875,1.0625 -0.21288,0.20169 -0.45954,0.36128 -0.75,0.46875 -0.28386,0.10697 -0.59503,0.15625 -0.9375,0.15625 -0.30992,0 -0.6038,-0.0365 -0.875,-0.125 -0.27118,-0.0935 -0.48591,-0.23889 -0.6875,-0.40625 -0.37577,-0.31232 -0.6473,-0.6747 -0.8125,-1.09375 -0.17009,-0.43644 -0.25,-0.90643 -0.25,-1.4375 -10e-6,-0.46034 0.0841,-0.91399 0.25,-1.34375 0.17121,-0.42913 0.37753,-0.73733 0.65625,-1 l 0,-0.0313 c 0.24367,-0.23542 0.52022,-0.39583 0.78125,-0.5 0.25732,-0.10266 0.55549,-0.15624 0.9375,-0.15625 z m 74.53125,0 c 0.31096,1e-5 0.59387,0.0532 0.875,0.15625 0.28602,0.098 0.52035,0.22746 0.71875,0.40625 l 0.0313,0.0313 c 0.34324,0.30264 0.58756,0.648 0.75,1.09375 0.17276,0.4588 0.24998,0.92309 0.25,1.40625 -10e-6,0.46036 -0.0851,0.89547 -0.25,1.3125 -0.16354,0.41348 -0.38116,0.77413 -0.6875,1.0625 -0.21288,0.20169 -0.45953,0.36128 -0.75,0.46875 -0.28385,0.10697 -0.59501,0.15625 -0.9375,0.15625 -0.3099,0 -0.60378,-0.0365 -0.875,-0.125 -0.27118,-0.0934 -0.51713,-0.23888 -0.71875,-0.40625 -0.37576,-0.31231 -0.61602,-0.67468 -0.78125,-1.09375 -0.17008,-0.43645 -0.28124,-0.90643 -0.28125,-1.4375 0,-0.46035 0.0841,-0.91399 0.25,-1.34375 0.17121,-0.42912 0.40879,-0.73732 0.6875,-1 l 0,-0.0313 c 0.24367,-0.23541 0.48898,-0.39583 0.75,-0.5 0.25731,-0.10266 0.58671,-0.15624 0.96875,-0.15625 z m 105.0625,0.15625 c 0.008,0.52423 0.0312,1.04076 0.0313,1.53125 0.005,0.46414 -10e-4,0.81204 0,1.15625 3.1e-4,0.10233 0,0.25204 0,0.34375 l 0,0.34375 c -8.7e-4,0.59684 0.005,1.16566 0,1.625 -0.004,0.35034 -0.0299,0.43787 -0.0313,0.59375 -0.50963,-0.002 -1.01451,-0.0629 -1.46875,-0.15625 -0.46346,-0.0965 -0.84656,-0.22506 -1.1875,-0.375 -0.49524,-0.21885 -0.86778,-0.52081 -1.15625,-0.90625 -0.27338,-0.37214 -0.43753,-0.79047 -0.4375,-1.34375 0,-0.53363 0.15042,-0.98823 0.4375,-1.40625 0.28362,-0.41294 0.68675,-0.74398 1.25,-0.96875 0.4449,-0.17636 0.8631,-0.28151 1.25,-0.34375 0.36423,-0.0577 0.82421,-0.0886 1.3125,-0.0937 z m -113.75,0.21875 c 0,0.13537 -10e-6,0.27227 0,0.40625 0,0.14515 0,0.27422 0,0.40625 0,0.11172 -10e-6,0.24141 0,0.34375 l 0,0.34375 c -5.2e-4,1.37798 -0.0258,2.53983 -0.0313,3.25 -0.004,0.54709 10e-4,0.6847 0,0.875 -0.50606,-0.007 -1.00596,-0.0364 -1.46875,-0.125 -0.49333,-0.10081 -0.9266,-0.24608 -1.3125,-0.4375 -0.43153,-0.2122 -0.77454,-0.50311 -1.0625,-0.875 -0.27173,-0.35092 -0.40624,-0.77115 -0.40625,-1.28125 0,-0.58164 0.14807,-1.05502 0.4375,-1.46875 0.2921,-0.42248 0.69754,-0.73368 1.25,-0.96875 0.34882,-0.14852 0.76986,-0.28359 1.28125,-0.375 0.40799,-0.0721 0.86072,-0.0787 1.3125,-0.0937 z m 49.4375,2.8125 c 0.002,0.21525 0,0.4451 0,0.625 -10e-6,0.15145 0,0.2509 0,0.375 l 0,0.34375 0,0.34375 c -10e-4,0.36665 0.004,0.72832 0,0.96875 l 0,0.0313 c 0,0.13562 0,0.1324 0,0.21875 -0.0707,0.002 -0.15074,-0.002 -0.21875,0 -0.17249,0.005 -0.32228,1e-5 -0.4375,0 -0.38686,0 -0.74528,-0.0249 -1.09375,-0.0625 -0.33755,-0.0423 -0.63424,-0.10021 -0.90625,-0.1875 -0.34495,-0.10968 -0.60655,-0.25844 -0.78125,-0.4375 -0.15825,-0.16618 -0.21876,-0.37656 -0.21875,-0.6875 0,-0.25863 0.0853,-0.41672 0.28125,-0.59375 0.23201,-0.20484 0.48475,-0.36591 0.78125,-0.46875 0.41954,-0.15005 0.9479,-0.26229 1.59375,-0.34375 0.48035,-0.0646 0.73867,-0.10219 1,-0.125 z m 73.9375,0 c 0.002,0.21525 -2e-5,0.44506 0,0.625 -10e-6,0.15145 0,0.2509 0,0.375 l 0,0.34375 0,0.34375 c -10e-4,0.36665 0.004,0.7283 0,0.96875 l 0,0.0313 c 0,0.13562 0,0.13243 0,0.21875 -0.0707,0.002 -0.15073,-0.002 -0.21875,0 -0.1725,0.005 -0.32226,1e-5 -0.4375,0 -0.38686,0 -0.74532,-0.0249 -1.09375,-0.0625 -0.33755,-0.0423 -0.63426,-0.10021 -0.90625,-0.1875 -0.34494,-0.10968 -0.60654,-0.25843 -0.78125,-0.4375 -0.15825,-0.16618 -0.21877,-0.37656 -0.21875,-0.6875 0,-0.25863 0.0853,-0.41672 0.28125,-0.59375 0.232,-0.20483 0.48477,-0.36591 0.78125,-0.46875 0.41955,-0.15005 0.94791,-0.26229 1.59375,-0.34375 0.48033,-0.0646 0.73866,-0.10219 1,-0.125 z"
         inkscape:connector-curvature="0" />
    </g>
    <path
       id="path3671"
       style="font-style:normal;font-variant:normal;font-weight:normal;font-stretch:normal;font-size:19.75634766px;line-height:100%;font-family:Skia;text-align:start;writing-mode:lr-tb;text-anchor:start;fill:#666666;fill-opacity:1;stroke:none;filter:url(#filter4270)"
       d="m 547.69314,407.78496 c -1.15417,2e-5 -2.15162,0.11851 -2.99119,0.42732 -0.8135,0.29918 -1.51774,0.73051 -2.04161,1.23445 -0.5795,0.56378 -0.9927,1.17105 -1.23446,1.85169 -0.23534,0.65306 -0.33241,1.38756 -0.33235,2.18404 l 0,0.095 -2.18404,0 -0.52227,0 0,0.52227 0,1.47186 0,0.52227 0.52227,0 2.18404,0 c -10e-4,2.71043 -0.0304,5.20791 -0.0476,7.31179 -0.0184,2.24764 -2e-5,3.401 0,3.56094 l 0,0.52227 0.52227,0 2.18404,0 0.52227,0 0,-0.52227 c 0,-0.15964 -0.0292,-1.40143 -0.0476,-3.75086 -0.009,-2.19595 6.1e-4,-4.5873 0,-7.12187 l 4.13069,0 0.56975,0 0,-0.52227 0,-1.47186 0,-0.52227 -0.56975,0 -4.13069,0 0,-0.0476 c 0,-0.51963 0.0556,-0.98239 0.18992,-1.3769 0.14145,-0.39972 0.34854,-0.66237 0.56975,-0.85462 0.33878,-0.2988 0.71819,-0.49453 1.1395,-0.61723 0.4156,-0.12094 1.06691,-0.23738 1.89917,-0.2374 0.063,2e-5 0.15286,0 0.23739,0 l 0,0.095 0.71219,-0.095 0.2374,0 0,-0.0476 0.095,0 -0.095,-0.52227 0,-0.4748 -0.0476,0 -0.18991,-1.18698 -0.095,-0.42731 -0.42732,0 c -0.0547,2e-5 -0.16729,2e-5 -0.33235,0 -0.15584,2e-5 -0.30811,2e-5 -0.42731,0 z m 68.89227,0 c -1.15414,2e-5 -2.1516,0.11851 -2.99118,0.42732 -0.8135,0.29918 -1.51773,0.73052 -2.04161,1.23445 -0.57947,0.56378 -0.99267,1.17105 -1.23446,1.85169 -0.23533,0.65306 -0.33235,1.38759 -0.33235,2.18404 l 0,0.095 -2.18404,0 -0.52227,0 0,0.52227 0,1.47186 0,0.52227 0.52227,0 2.18404,0 c -10e-4,2.71041 -0.0304,5.20791 -0.0476,7.31179 -0.0184,2.24764 -0.0474,3.40152 -0.0476,3.56094 l 0,0.52227 0.56975,0 2.13656,0 0.56975,0 0,-0.52227 c 0,-0.15962 -0.0292,-1.40143 -0.0476,-3.75086 -0.009,-2.19595 5.9e-4,-4.5873 0,-7.12187 l 4.13068,0 0.52228,0 0,-0.52227 0,-1.47186 0,-0.52227 -0.52228,0 -4.13068,0 0,-0.0476 c 0,-0.51961 0.0556,-0.98237 0.18991,-1.3769 0.14145,-0.3997 0.34852,-0.66237 0.56975,-0.85462 0.3388,-0.29881 0.67071,-0.49455 1.09202,-0.61723 0.41565,-0.12109 1.06691,-0.23738 1.89917,-0.2374 0.0631,2e-5 0.15288,0 0.2374,0 l 0,0.095 0.71218,-0.095 0.28488,0 0,-0.0476 0.095,0 -0.095,-0.52227 0,-0.4748 -0.095,0 -0.18992,-1.18698 -0.0476,-0.42731 -0.47479,0 c -0.0547,2e-5 -0.16733,2e-5 -0.33236,0 -0.15582,2e-5 -0.26064,2e-5 -0.37983,0 z m 50.80272,0 0,0.52227 0.0476,5.41263 c -0.839,0.0258 -1.70221,0.0378 -2.56387,0.18992 -1.04368,0.17553 -1.9747,0.44738 -2.80127,0.80714 -1.40296,0.5907 -2.50634,1.42527 -3.27607,2.5164 -0.76905,1.08096 -1.1395,2.36461 -1.1395,3.75085 0,1.20427 0.35296,2.34086 1.04455,3.32355 0.69618,0.98932 1.70326,1.7532 2.99118,2.32647 0.97867,0.43487 2.00736,0.71196 3.03867,0.85463 1.02564,0.15072 2.38301,0.2374 4.13069,0.2374 0.18286,0 0.41573,0.009 0.71219,0 0.29341,0 0.4674,-2e-5 0.52227,0 l 0.52227,0 0,-0.0476 0,-0.52227 c -10e-4,-0.14722 10e-4,-0.36713 0,-0.52227 -0.009,-0.94513 -0.0318,-1.94217 -0.0476,-3.18111 -0.009,-1.44892 -3e-5,-3.05422 0,-4.84287 -1e-5,-2.26309 -0.0184,-4.5384 0,-6.74204 0.0184,-2.20526 0.0474,-3.3723 0.0476,-3.56094 l 0,-0.52227 -0.52227,0 -2.18405,0 -0.52227,0 z m 142.72239,0 0.0476,0.52227 c 0.0275,1.91477 -1e-5,3.68228 0,5.22271 0.009,1.53445 0.0476,2.79068 0.0476,3.79834 0,1.56696 -0.0292,3.55252 -0.0476,5.93489 -0.005,1.18707 0.005,2.08839 0,2.70632 -0.003,0.30897 0.002,0.54673 0,0.71218 -0.002,0.16546 -0.006,0.30001 0,0.2374 l -0.0949,0.56975 0.61722,0 1.6143,0 0.56975,0 0.52227,0 0,-0.52227 c 0,-0.022 5.4e-4,-0.4495 0,-0.52227 -0.003,-0.35076 -0.0324,-0.92189 -0.0476,-2.5164 -0.0184,-1.923 3e-5,-4.17344 0,-6.74204 0,-1.17753 -0.009,-2.60804 0,-4.3206 0.009,-1.72053 0.0292,-3.25387 0.0476,-4.55801 l 0,-0.52227 -0.52227,0 -2.18405,0 -0.56975,0 z m -251.02238,5.41263 -0.52227,0.095 c -0.64785,0.15435 -1.44691,0.45068 -2.46892,0.85462 -0.77998,0.30828 -1.58017,0.70028 -2.37396,1.09202 l 0,-1.1395 0,-0.52227 -0.52227,0 -2.13656,0 -0.52227,0 0,0.52227 c 0.0182,1.25362 0.0383,2.57318 0.0476,3.98825 0.009,1.41576 0,2.53684 0,3.32355 0,1.94904 0.0181,3.33472 0,4.13068 -0.0184,0.80642 -0.0476,1.25756 -0.0476,1.42438 l 0,0.52227 0.52227,0 2.18404,0 0.52227,0 0,-0.52227 c 0,-0.18465 -0.0199,-0.90463 -0.0476,-2.279 -0.0182,-1.37223 -3e-5,-2.56339 0,-3.56094 -10e-6,-0.65056 -0.009,-1.38356 0,-2.13656 0.006,-0.50905 -0.002,-0.64171 0,-0.85463 1.21705,-0.52541 2.29131,-1.00718 3.22859,-1.32941 0.80158,-0.27316 1.29394,-0.44693 1.75673,-0.56975 l 0.23739,-0.0476 c 0.0678,-0.0167 0.22673,-0.0822 0.28488,-0.095 l 0.52227,-0.095 -0.095,-0.52227 -0.14236,-0.52227 -0.28488,-1.28193 -0.14236,-0.4748 z m 68.89227,0 -0.52227,0.095 c -0.64779,0.15435 -1.4469,0.45068 -2.46891,0.85462 -0.77997,0.30828 -1.58016,0.70028 -2.37396,1.09202 l 0,-1.1395 0,-0.52227 -0.52227,0 -2.13657,0 -0.56975,0 0.0476,0.52227 c 0.0184,1.25361 0.0383,2.57318 0.0476,3.98825 0.009,1.41576 -2e-5,2.53684 0,3.32355 0,1.94906 -0.0293,3.33477 -0.0476,4.13068 -0.0184,0.80644 2e-5,1.25777 0,1.42438 l 0,0.52227 0.52227,0 2.18404,0 0.52227,0 0,-0.52227 c 0,-0.18457 -0.0199,-0.90461 -0.0476,-2.279 -0.0182,-1.37222 -0.0474,-2.56338 -0.0476,-3.56094 0,-0.65058 0.0383,-1.38358 0.0476,-2.13656 0.006,-0.53731 -0.002,-0.6939 0,-0.90211 1.19243,-0.51344 2.30679,-0.96502 3.22858,-1.28193 0.80157,-0.27316 1.29393,-0.44693 1.75673,-0.56975 l 0.2374,-0.0476 c 0.0678,-0.0167 0.22671,-0.0822 0.28487,-0.095 l 0.52227,-0.095 -0.14236,-0.52227 -0.095,-0.52227 -0.28487,-1.28193 -0.14236,-0.4748 z m -60.58342,0.0476 c -0.97065,2e-5 -1.87513,0.17524 -2.75379,0.52228 -0.87919,0.33809 -1.66121,0.82891 -2.32648,1.47185 -0.73771,0.70058 -1.30228,1.47795 -1.66177,2.37396 -0.34747,0.88161 -0.52227,1.86255 -0.52227,2.89623 0,1.07529 0.2146,2.11424 0.61723,3.08614 0.41315,0.97365 0.99976,1.79639 1.75673,2.46892 0.65453,0.57789 1.40129,1.02766 2.23152,1.32942 0.83009,0.29248 1.72393,0.42729 2.65883,0.42731 0.98827,0 1.90244,-0.12063 2.70631,-0.42731 0.80259,-0.30244 1.5325,-0.75417 2.18405,-1.32942 0.77355,-0.68801 1.35172,-1.54784 1.75673,-2.5164 0.33589,-0.78415 0.45978,-1.6243 0.52227,-2.46891 l 0.0949,0 0,-0.56975 0,-0.52227 -0.0949,0 c -0.053,-0.85077 -0.12504,-1.68099 -0.42732,-2.42144 -0.36822,-0.91137 -0.96353,-1.70437 -1.70925,-2.42144 -0.6558,-0.63417 -1.3844,-1.11092 -2.23152,-1.42437 -0.83891,-0.32332 -1.79252,-0.47478 -2.80127,-0.4748 z m 17.47234,0 c -0.81397,2e-5 -1.7261,0.19943 -2.70632,0.61723 -0.62658,0.26972 -1.07079,0.57601 -1.56681,0.85463 l 0,-0.61723 0,-0.52227 -0.52227,0 -2.13656,0 -0.56975,0 0,0.52227 c 0.0275,1.49013 0.0474,2.81349 0.0476,3.98825 0.009,1.17811 0.0476,2.15565 0.0476,2.84875 0,2.1273 -0.0293,3.64161 -0.0476,4.558 -0.0184,0.91623 -0.0476,1.35473 -0.0476,1.47186 l 0,0.52227 0.56975,0 2.13656,0 0.56975,0 0,-0.52227 c -3e-5,-0.14176 -0.0199,-0.82342 -0.0476,-2.23153 -0.0184,-1.41477 -0.0476,-2.64985 -0.0476,-3.65589 0,-0.59095 -0.009,-1.34716 0,-2.279 0.008,-0.77567 0.0462,-1.0902 0.0476,-1.32942 0.74053,-0.41689 1.42258,-0.7715 1.99412,-0.99706 l 0.0476,0 c 0.64485,-0.26245 1.14998,-0.37984 1.56681,-0.37984 0.51628,0 0.90108,0.10423 1.09202,0.18992 0.21909,0.0921 0.38403,0.19106 0.52227,0.37983 0.12124,0.16517 0.23279,0.38953 0.28488,0.66471 0.0583,0.30887 0.0865,0.65041 0.095,0.99707 0.009,0.3987 0,1.03595 0,1.89916 0.009,0.85571 -1e-5,1.47892 0,1.89917 0,1.26965 0.0182,2.34786 0,3.27606 -0.0184,0.93331 -0.0476,1.43854 -0.0476,1.56682 l 0,0.52227 0.52227,0 2.18404,0 0.52227,0 0,-0.52227 c -3e-5,-0.14176 -0.0199,-0.60795 -0.0476,-1.56682 -0.0182,-0.95339 0,-2.15534 0,-3.56094 -2e-5,-0.64202 -0.009,-1.29229 0,-1.99412 0.009,-0.71463 0,-1.39973 0,-2.08908 -2e-5,-0.15861 0.006,-0.30586 0,-0.42732 0.72051,-0.38328 1.43092,-0.71454 1.99412,-0.9021 0.6607,-0.2171 1.19049,-0.33236 1.61429,-0.33236 0.7716,0 1.25048,0.16734 1.51934,0.42732 0.24917,0.23562 0.49661,0.80889 0.52227,1.75673 0.009,0.42501 -2e-5,1.07494 0,1.94664 0.009,0.86431 0,1.47432 0,1.85169 -2e-5,0.96352 0.0182,1.99469 0,3.08615 -0.005,0.54636 -0.0429,0.98738 -0.0476,1.28193 -0.005,0.29456 -0.005,0.5199 0,0.4748 l -0.0476,0.56975 0.56975,0 1.66177,0 0.52227,0 0.52227,0 0,-0.52227 c -10e-6,-0.0463 0.003,-0.39593 0,-0.52228 -0.006,-0.25303 -0.0292,-0.38811 -0.0476,-1.04454 -0.0182,-0.97903 -3e-5,-2.18585 0,-3.60841 -3e-5,-0.68459 -0.009,-1.33895 0,-1.94665 0.0185,-0.62674 0.0474,-1.37638 0.0476,-2.279 -3e-5,-1.27103 -0.40934,-2.35079 -1.23446,-3.13363 -0.81983,-0.79771 -1.96199,-1.18696 -3.32354,-1.18698 -0.7127,2e-5 -1.54279,0.14799 -2.46892,0.4748 -0.81819,0.29169 -1.71668,0.76253 -2.65883,1.28193 -0.30849,-0.43866 -0.62758,-0.89282 -1.1395,-1.18698 -0.69646,-0.40636 -1.50175,-0.56973 -2.46892,-0.56975 z m 50.99263,0 c -0.92643,2e-5 -1.83982,0.13781 -2.70632,0.4748 -0.86286,0.33945 -1.58677,0.83511 -2.18404,1.47185 l -0.0476,0 c -0.66351,0.71304 -1.13423,1.52897 -1.47186,2.37396 -0.33981,0.85055 -0.52228,1.77725 -0.52227,2.80127 -1e-5,1.05817 0.21209,2.05982 0.66471,2.94371 0.44781,0.85549 1.00952,1.57034 1.66177,2.13656 0.76116,0.67629 1.71206,1.1926 2.84875,1.56681 1.15682,0.36869 2.47919,0.52226 3.98825,0.52228 0.56737,0 1.09196,0.0263 1.51934,0 0.41493,-0.017 0.61332,-0.0305 0.75966,-0.0476 l 0.37984,-0.0476 0.0949,-0.42731 0.2374,-1.66177 0.095,-0.66471 -0.66471,0.0476 c -0.0808,0.006 -0.3681,0.022 -0.80715,0.0476 -0.41836,0.0248 -0.86287,0.0476 -1.37689,0.0476 -0.9252,0 -1.74752,-0.0965 -2.37396,-0.2374 -0.63341,-0.15041 -1.18087,-0.38094 -1.66177,-0.66471 -0.76533,-0.45121 -1.30803,-0.95985 -1.66177,-1.61429 -0.27173,-0.5084 -0.30744,-1.12581 -0.37984,-1.70925 l 8.73617,0 0.52227,0 0.52227,0 0,-0.56975 0,-0.52227 -0.095,0 c -0.0494,-0.9104 -0.12368,-1.75797 -0.37984,-2.46892 -0.30725,-0.86179 -0.72943,-1.62948 -1.32941,-2.23152 -0.54045,-0.53761 -1.21748,-0.92465 -1.94665,-1.18698 -0.72881,-0.26214 -1.51935,-0.37981 -2.42144,-0.37983 z m 14.33871,0 c -0.92643,2e-5 -1.83985,0.13781 -2.70632,0.4748 -0.86289,0.33946 -1.58677,0.83513 -2.18404,1.47185 -0.66352,0.71304 -1.18172,1.52897 -1.51933,2.37396 -0.33981,0.85055 -0.47481,1.77725 -0.47479,2.80127 0,1.05817 0.21207,2.05981 0.66471,2.94371 0.44782,0.85547 1.00947,1.57032 1.66177,2.13656 0.76114,0.67629 1.71207,1.1926 2.84875,1.56681 1.15682,0.36869 2.47918,0.52226 3.98825,0.52228 0.56736,0 1.04452,0.0263 1.47185,0 0.41495,-0.017 0.6133,-0.0305 0.75967,-0.0476 l 0.42731,-0.0476 0.0476,-0.42731 0.23739,-1.66177 0.095,-0.66471 -0.66471,0.0476 c -0.0807,0.006 -0.36809,0.022 -0.80714,0.0476 -0.41834,0.0248 -0.86292,0.0476 -1.3769,0.0476 -0.9252,0 -1.70003,-0.0965 -2.32648,-0.2374 -0.63341,-0.15041 -1.18093,-0.38096 -1.66177,-0.66471 -0.76535,-0.45121 -1.30802,-0.95985 -1.66177,-1.61429 -0.27214,-0.50917 -0.3551,-1.12479 -0.42731,-1.70925 l 8.73616,0 0.52227,0 0.56975,0 0,-0.56975 0,-0.52227 -0.095,0 c -0.0494,-0.91041 -0.12368,-1.75799 -0.37984,-2.46892 -0.30728,-0.86178 -0.77688,-1.62948 -1.37689,-2.23152 -0.54046,-0.5376 -1.17,-0.92465 -1.89917,-1.18698 -0.72881,-0.26216 -1.56687,-0.37981 -2.46892,-0.37983 z m 30.43415,0 c -0.97068,2e-5 -1.92258,0.17524 -2.80127,0.52228 -0.87917,0.33809 -1.66123,0.82891 -2.32648,1.47185 -0.73772,0.70058 -1.25479,1.47795 -1.6143,2.37396 -0.34747,0.88162 -0.52224,1.86256 -0.52227,2.89623 0,1.07531 0.16718,2.11426 0.56975,3.08614 l 0.0476,0 c 0.41318,0.97367 0.99983,1.7964 1.75673,2.46892 0.65451,0.57789 1.40126,1.02766 2.23152,1.32942 0.83007,0.29248 1.72394,0.42729 2.65883,0.42731 0.98828,0 1.85497,-0.12063 2.65884,-0.42731 0.8026,-0.30244 1.5325,-0.75417 2.18404,-1.32942 0.77355,-0.68801 1.39921,-1.54782 1.80421,-2.5164 0.33589,-0.78415 0.45979,-1.6243 0.52227,-2.46891 l 0.095,0 0,-0.56975 0,-0.52227 -0.095,0 c -0.0529,-0.85139 -0.1724,-1.68052 -0.47479,-2.42144 -0.36825,-0.91136 -0.91604,-1.70436 -1.66178,-2.42144 -0.6558,-0.63417 -1.43185,-1.11092 -2.279,-1.42437 -0.83891,-0.32332 -1.74506,-0.47478 -2.75379,-0.4748 z m 17.42485,0 c -0.81398,2e-5 -1.67862,0.19943 -2.65883,0.61723 -0.61697,0.26558 -1.07645,0.58046 -1.56681,0.85463 l 0,-0.61723 0,-0.52227 -0.56975,0 -2.13657,0 -0.52227,0 0,0.52227 c 0.0275,1.49013 0.0476,2.8135 0.0476,3.98825 0.009,1.17809 -2e-5,2.1556 0,2.84875 0,2.12731 0.0182,3.64163 0,4.558 -0.0184,0.91623 -0.0476,1.35613 -0.0476,1.47186 l 0,0.52227 0.52227,0 2.18405,0 0.52227,0 0,-0.52227 c -3e-5,-0.14161 -0.0199,-0.82342 -0.0476,-2.23153 -0.0184,-1.41475 0,-2.64984 0,-3.65589 0,-0.59096 -0.009,-1.3472 0,-2.279 0.008,-0.74782 -10e-4,-1.03304 0,-1.28194 0.76649,-0.43442 1.45376,-0.81254 2.04161,-1.04454 0.64486,-0.26245 1.19744,-0.37984 1.61429,-0.37984 0.51628,0 0.90104,0.10423 1.09202,0.18992 0.21909,0.0921 0.38398,0.19103 0.52227,0.37983 0.12124,0.1652 0.18533,0.38956 0.2374,0.66471 0.0585,0.30884 0.0865,0.65041 0.095,0.99707 0.009,0.39862 0.0474,1.03594 0.0476,1.89916 0.009,0.85572 -3e-5,1.47889 0,1.89917 -2e-5,1.26966 -0.0292,2.3479 -0.0476,3.27606 -0.0184,0.93331 -10e-6,1.4384 0,1.56682 l 0,0.52227 0.52227,0 2.18405,0 0.52227,0 0,-0.52227 c -3e-5,-0.14191 -0.0199,-0.60797 -0.0476,-1.56682 -0.0182,-0.95339 -10e-6,-2.15534 0,-3.56094 -10e-6,-0.64205 -0.009,-1.29233 0,-1.99412 0.009,-0.71465 -3e-5,-1.39976 0,-2.08908 -10e-6,-0.15864 0.006,-0.30592 0,-0.42732 0.71828,-0.38179 1.38489,-0.71503 1.94665,-0.9021 0.66068,-0.2171 1.23794,-0.33236 1.66177,-0.33236 0.77159,0 1.25043,0.16731 1.51933,0.42732 0.24917,0.23563 0.44915,0.80891 0.47479,1.75673 0.009,0.425 -3e-5,1.07493 0,1.94664 0.009,0.86429 0.0474,1.47424 0.0476,1.85169 -2e-5,0.96352 -0.0292,1.9947 -0.0476,3.08615 -0.005,0.54638 0.005,0.98738 0,1.28193 -0.005,0.29456 -0.005,0.51983 0,0.4748 l -0.095,0.56975 0.61723,0 1.61429,0 0.56975,0 0.52227,0 0,-0.52227 c -2e-5,-0.046 0.003,-0.39596 0,-0.52228 -0.006,-0.253 -0.0292,-0.38811 -0.0476,-1.04454 -0.0182,-0.97901 -0.0474,-2.18583 -0.0476,-3.60841 0,-0.68463 0.0383,-1.33901 0.0476,-1.94665 0.0185,-0.62674 0,-1.37638 0,-2.279 0,-1.27103 -0.40931,-2.35079 -1.23446,-3.13363 -0.81981,-0.79771 -1.96197,-1.18696 -3.32354,-1.18698 -0.7127,2e-5 -1.49533,0.14799 -2.42144,0.4748 -0.81819,0.29169 -1.71666,0.76253 -2.65883,1.28193 -0.30848,-0.43866 -0.62757,-0.89282 -1.1395,-1.18698 -0.69648,-0.40636 -1.54926,-0.56973 -2.5164,-0.56975 z m 58.96913,0 c -0.81398,2e-5 -1.6786,0.19943 -2.65883,0.61723 -0.61697,0.26558 -1.07646,0.58046 -1.56681,0.85463 l 0,-0.61723 0,-0.52227 -0.52227,0 -2.18404,0 -0.52228,0 0,0.52227 c 0.0275,1.49013 0.0474,2.81349 0.0476,3.98825 0.009,1.17811 0,2.15565 0,2.84875 0,2.12731 0.0182,3.64165 0,4.558 -0.0184,0.91623 -0.0476,1.35464 -0.0476,1.47186 l 0,0.52227 0.52228,0 2.18404,0 0.52227,0 0,-0.52227 c 0,-0.14221 -0.0199,-0.82341 -0.0476,-2.23153 -0.0184,-1.41477 -10e-6,-2.64987 0,-3.65589 0,-0.59096 -0.009,-1.34718 0,-2.279 0.008,-0.7478 -10e-4,-1.03297 0,-1.28194 0.76651,-0.43442 1.45378,-0.81254 2.04161,-1.04454 0.64483,-0.26245 1.19744,-0.37984 1.61429,-0.37984 0.51628,0 0.90096,0.10423 1.09202,0.18992 0.21907,0.0921 0.38394,0.191 0.52227,0.37983 0.12124,0.16519 0.1853,0.38953 0.2374,0.66471 0.0585,0.30882 0.13385,0.65041 0.14236,0.99707 0.009,0.39867 -5e-5,1.03594 0,1.89916 0.009,0.85571 -2e-5,1.47891 0,1.89917 0,1.26966 0.0182,2.3479 0,3.27606 -0.0184,0.93331 -0.0476,1.43753 -0.0476,1.56682 l 0,0.52227 0.52227,0 2.18405,0 0.52227,0 0,-0.52227 c -3e-5,-0.14176 -0.0199,-0.60795 -0.0476,-1.56682 -0.0182,-0.95338 3e-5,-2.15534 0,-3.56094 -10e-6,-0.64204 -0.009,-1.29231 0,-1.99412 0.009,-0.71462 2e-5,-1.39972 0,-2.08908 -10e-6,-0.15865 0.006,-0.30589 0,-0.42732 0.72055,-0.38328 1.43091,-0.71454 1.99413,-0.9021 0.66068,-0.2171 1.19047,-0.33236 1.61429,-0.33236 0.77159,0 1.25047,0.16734 1.51933,0.42732 0.24916,0.23563 0.44918,0.80892 0.47479,1.75673 0.009,0.42503 0.0476,1.07497 0.0476,1.94664 0.009,0.86426 -6e-5,1.47415 0,1.85169 -5e-5,0.96353 -0.0292,1.9947 -0.0476,3.08615 -0.005,0.54636 0.005,0.9874 0,1.28193 -0.005,0.29454 -0.005,0.52063 0,0.4748 l -0.0476,0.56975 0.56975,0 1.66177,0 0.52227,0 0.52227,0 0,-0.52227 c 0,-0.0466 0.003,-0.39591 0,-0.52228 -0.006,-0.25307 -0.0292,-0.38812 -0.0476,-1.04454 -0.0182,-0.979 -0.0474,-2.18582 -0.0476,-3.60841 -1e-5,-0.68463 0.0383,-1.33904 0.0476,-1.94665 0.0185,-0.6267 0,-1.37635 0,-2.279 -3e-5,-1.27104 -0.40937,-2.35079 -1.23446,-3.13363 -0.81983,-0.79771 -1.96202,-1.18696 -3.32354,-1.18698 -0.71272,2e-5 -1.49532,0.14799 -2.42144,0.4748 -0.81815,0.29168 -1.71668,0.76253 -2.65884,1.28193 -0.30848,-0.43867 -0.62763,-0.89282 -1.1395,-1.18698 -0.69649,-0.40636 -1.54929,-0.56973 -2.51639,-0.56975 z m 22.79001,0 c -0.92642,2e-5 -1.83981,0.13781 -2.70632,0.4748 -0.86286,0.33945 -1.58679,0.8351 -2.18404,1.47185 -0.66351,0.71302 -1.18174,1.52894 -1.51933,2.37396 -0.33982,0.85057 -0.52226,1.77728 -0.52227,2.80127 0,1.05817 0.25956,2.05982 0.71219,2.94371 0.44779,0.85549 0.96201,1.57034 1.61429,2.13656 0.76112,0.67629 1.71204,1.1926 2.84875,1.56681 l 0.0476,0 c 1.15682,0.36869 2.47922,0.52226 3.98825,0.52228 0.56737,0 1.04454,0.0263 1.47186,0 0.41493,-0.017 0.61326,-0.0305 0.75966,-0.0476 l 0.42732,-0.0476 0.0476,-0.42731 0.2374,-1.66177 0.095,-0.66471 -0.66471,0.0476 c -0.0808,0.006 -0.36812,0.022 -0.80715,0.0476 -0.41836,0.0248 -0.86286,0.0476 -1.37689,0.0476 -0.92522,0 -1.70011,-0.0965 -2.32648,-0.2374 -0.63338,-0.15041 -1.18085,-0.38094 -1.66177,-0.66471 -0.76534,-0.45121 -1.30801,-0.95983 -1.66178,-1.61429 -0.27214,-0.50917 -0.35509,-1.12479 -0.42731,-1.70925 l 8.73617,0 0.52227,0 0.56975,0 0,-0.56975 0,-0.52227 -0.095,0 c -0.0494,-0.9104 -0.12367,-1.75796 -0.37983,-2.46892 -0.30727,-0.86178 -0.77691,-1.62948 -1.3769,-2.23152 -0.54045,-0.53761 -1.16999,-0.92465 -1.89916,-1.18698 -0.7288,-0.26216 -1.56683,-0.37981 -2.46892,-0.37983 z m 21.4131,0 c -0.92644,2e-5 -1.83985,0.13781 -2.70631,0.4748 -0.86289,0.33946 -1.58676,0.83513 -2.18404,1.47185 -0.66351,0.71304 -1.18172,1.52897 -1.51934,2.37396 -0.33981,0.85057 -0.52222,1.77728 -0.52227,2.80127 0,1.05819 0.21216,2.05985 0.66471,2.94371 0.44783,0.85547 1.00951,1.57034 1.66177,2.13656 0.76116,0.67629 1.71208,1.1926 2.84875,1.56681 1.15681,0.36869 2.52672,0.52226 4.03573,0.52228 0.56737,0 1.04448,0.0263 1.47186,0 0.41493,-0.017 0.6132,-0.0305 0.75966,-0.0476 l 0.37984,-0.0476 0.095,-0.42731 0.23739,-1.66177 0.095,-0.66471 -0.66471,0.0476 c -0.0808,0.006 -0.36807,0.022 -0.80714,0.0476 -0.41837,0.0248 -0.86292,0.0476 -1.3769,0.0476 -0.9252,0 -1.74751,-0.0965 -2.37396,-0.2374 -0.63339,-0.15041 -1.18096,-0.38097 -1.66177,-0.66471 -0.76533,-0.45122 -1.26061,-0.95988 -1.61429,-1.61429 -0.27214,-0.50916 -0.35507,-1.12476 -0.42731,-1.70925 l 8.73616,0 0.52227,0 0.52228,0 0,-0.56975 0,-0.52227 -0.095,0 c -0.0494,-0.91041 -0.12368,-1.75799 -0.37984,-2.46892 -0.30725,-0.86181 -0.72947,-1.6295 -1.32941,-2.23152 -0.54045,-0.53758 -1.21738,-0.92463 -1.94665,-1.18698 -0.72879,-0.26216 -1.51939,-0.37981 -2.42144,-0.37983 z m 21.8879,0 c -0.92644,2e-5 -1.83987,0.13781 -2.70631,0.4748 -0.86289,0.33946 -1.58678,0.83513 -2.18404,1.47185 -0.66353,0.71302 -1.18174,1.52894 -1.51934,2.37396 -0.33981,0.85057 -0.52224,1.77728 -0.52227,2.80127 0,1.05819 0.25963,2.05984 0.71219,2.94371 0.44782,0.85547 0.96204,1.57034 1.61429,2.13656 0.76116,0.67629 1.71209,1.1926 2.84875,1.56681 1.15682,0.36869 2.5267,0.52226 4.03573,0.52228 0.56737,0 1.04457,0.0263 1.47186,0 0.41493,-0.017 0.61324,-0.0305 0.75966,-0.0476 l 0.42732,-0.0476 0.0476,-0.42731 0.2374,-1.66177 0.095,-0.66471 -0.6647,0.0476 c -0.0808,0.006 -0.36806,0.022 -0.80715,0.0476 -0.41836,0.0248 -0.86294,0.0476 -1.3769,0.0476 -0.92521,0 -1.70005,-0.0965 -2.32648,-0.2374 -0.63342,-0.15041 -1.18094,-0.38096 -1.66177,-0.66471 -0.76535,-0.45121 -1.30801,-0.95983 -1.66177,-1.61429 -0.27214,-0.50917 -0.35508,-1.12478 -0.42731,-1.70925 l 8.73617,0 0.52227,0 0.52227,0 0.0476,0 -0.0476,-0.56975 0,-0.52227 -0.095,0 c -0.0494,-0.90997 -0.0763,-1.75829 -0.33235,-2.46892 -0.30726,-0.86176 -0.77684,-1.62947 -1.3769,-2.23152 -0.54044,-0.5376 -1.21741,-0.92463 -1.94664,-1.18698 -0.72881,-0.26216 -1.51941,-0.37981 -2.42144,-0.37983 z m 46.81446,0 c -0.65307,2e-5 -1.38519,0.14586 -2.279,0.42732 -0.68579,0.21146 -1.60595,0.6453 -2.51639,1.09202 l 0,-0.66471 0,-0.52227 -0.52227,0 -2.18404,0 -0.52228,0 0,0.52227 c 0.0275,1.34529 0.0474,2.60651 0.0476,3.79833 0.009,1.19485 -2e-5,2.24491 0,3.13363 0,1.93207 0.0182,3.39077 0,4.36808 -0.0184,0.97558 -0.0476,1.45142 -0.0476,1.56682 l 0,0.52227 0.52228,0 2.18404,0 0.52227,0 0,-0.52227 c -3e-5,-0.13872 -0.0199,-0.79293 -0.0476,-2.18405 -0.0184,-1.38928 -4e-5,-2.58043 0,-3.56093 0,-0.75267 -0.009,-1.60185 0,-2.5164 0.008,-0.6871 -0.002,-0.9113 0,-1.1395 0.74091,-0.40378 1.46364,-0.77799 2.18405,-1.04454 0.78854,-0.29175 1.43656,-0.42732 1.89916,-0.42732 0.8449,0 1.28718,0.21292 1.51934,0.4748 0.24593,0.27746 0.44911,0.84742 0.47479,1.75673 0.009,0.38983 0.0476,1.03597 0.0476,1.89916 0.009,0.85569 3e-5,1.50937 0,1.94665 -10e-6,0.30349 -0.0292,1.09044 -0.0476,2.42144 -0.009,1.33057 0.008,2.1679 0,2.37396 l -0.0476,0.52227 0.56975,0 1.66177,0 0.52227,0 0.52228,0 0,-0.52227 c -2e-5,-0.0394 0.002,-0.41471 0,-0.52228 -0.006,-0.27405 -0.0278,-0.50092 -0.0476,-1.32941 -0.0184,-1.16009 -2e-5,-2.08116 0,-2.84875 -2e-5,-0.48004 -0.009,-1.12866 0,-1.89917 0.0185,-0.78598 -2e-5,-1.68211 0,-2.75379 -2e-5,-1.29415 -0.40698,-2.39599 -1.23446,-3.18111 -0.8116,-0.78967 -1.90371,-1.18696 -3.1811,-1.18698 z m 26.73078,0 c -0.92643,2e-5 -1.83985,0.13781 -2.70631,0.4748 -0.86288,0.33946 -1.58678,0.83513 -2.18405,1.47185 -0.66352,0.71304 -1.1817,1.52897 -1.51933,2.37396 -0.33978,0.85054 -0.52232,1.77724 -0.52227,2.80127 0,1.05817 0.25953,2.05981 0.71219,2.94371 0.44782,0.85549 1.00955,1.57035 1.66177,2.13656 0.76114,0.6763 1.7121,1.1926 2.84875,1.56681 1.15679,0.36869 2.47917,0.52226 3.98825,0.52228 0.56736,0 1.04451,0.0263 1.47185,0 0.41495,-0.017 0.61325,-0.0305 0.75967,-0.0476 l 0.42731,-0.0476 0.0476,-0.42731 0.23739,-1.66177 0.095,-0.66471 -0.66471,0.0476 c -0.0808,0.006 -0.36806,0.022 -0.80714,0.0476 -0.41834,0.0248 -0.86292,0.0476 -1.3769,0.0476 -0.92521,0 -1.70003,-0.0965 -2.32648,-0.2374 -0.63341,-0.15041 -1.18093,-0.38096 -1.66177,-0.66471 -0.76533,-0.45122 -1.30807,-0.95988 -1.66177,-1.61429 -0.27214,-0.50917 -0.35511,-1.12479 -0.42731,-1.70925 l 8.73617,0 0.52227,0 0.56975,0 0,-0.56975 0,-0.52227 -0.095,0 c -0.0494,-0.91041 -0.12368,-1.758 -0.37984,-2.46892 -0.30725,-0.86181 -0.77695,-1.6295 -1.37689,-2.23152 -0.54047,-0.53761 -1.17004,-0.92465 -1.89917,-1.18698 -0.72881,-0.26216 -1.56686,-0.37981 -2.46892,-0.37983 z m -159.76741,0.18992 c -0.4046,0.017 -0.6595,0.0384 -0.80715,0.0476 l -0.42731,0.0476 -0.0476,0.42731 -0.23739,1.70925 -0.095,0.61723 0.66471,-0.0476 c 0.49595,-0.0255 0.85269,-0.0304 1.1395,-0.0476 0.27907,-0.0161 0.63921,-0.0476 1.04454,-0.0476 0.64192,0 1.19811,0.0315 1.66177,0.095 0.45861,0.055 0.87697,0.14965 1.23446,0.28487 0.5099,0.19163 0.85847,0.47985 1.09202,0.80715 0.14479,0.20295 0.15945,0.55817 0.23739,0.85462 -1.00045,0.091 -1.97426,0.17795 -2.80127,0.33236 -1.01104,0.18183 -1.82396,0.41689 -2.46891,0.6647 -1.01218,0.38712 -1.81223,0.89825 -2.42144,1.56682 -0.61345,0.67511 -0.9496,1.54618 -0.94959,2.46891 0,0.86765 0.27981,1.64187 0.80715,2.279 0.51607,0.61102 1.19546,1.08274 1.99413,1.42438 0.60033,0.25917 1.29556,0.43708 2.08908,0.56975 0.7891,0.13188 1.5446,0.23738 2.32648,0.2374 1.20986,0 2.20852,-0.0339 2.99119,-0.095 0.76156,-0.0509 1.15279,-0.083 1.28193,-0.095 l 0.52228,-0.0476 0,-0.47479 c -2e-5,-0.0854 -0.009,-0.81356 0,-2.13656 0.008,-1.17916 -9e-4,-2.80938 0,-4.60548 l 0,-0.56975 0,-0.52227 -0.095,0 c -0.0384,-0.96642 -0.0757,-1.84664 -0.33236,-2.46892 -0.29602,-0.727 -0.74186,-1.35588 -1.32941,-1.85169 -0.63218,-0.5272 -1.41011,-0.87325 -2.32648,-1.09202 -0.8957,-0.22512 -1.92201,-0.33234 -3.03867,-0.33235 -0.71242,1e-5 -1.27805,-0.0266 -1.70925,0 z m 104.45417,0 c -1.43118,2e-5 -2.66702,0.0792 -3.70337,0.2374 -1.03517,0.15071 -2.0044,0.45112 -2.89623,0.85462 -1.24956,0.56448 -2.27539,1.3453 -3.03867,2.32648 -0.77506,0.99623 -1.13947,2.17324 -1.1395,3.46598 0,1.26267 0.24047,2.37074 0.80715,3.27606 0.5457,0.8719 1.26326,1.54748 2.13656,2.08909 0.88033,0.56727 1.92773,0.97775 3.13363,1.23446 1.17175,0.24087 2.35053,0.37659 3.46597,0.37983 -0.0807,0.52368 -0.16648,1.0467 -0.42731,1.42437 -0.33167,0.48684 -0.93971,0.93163 -1.94664,1.28194 -0.65248,0.22236 -1.41323,0.34592 -2.23152,0.42731 -0.83222,0.091 -1.7892,0.17316 -2.84876,0.18992 l -0.56975,0 0.0476,0.56975 0.2374,1.66177 0.0476,0.42731 0.47479,0 c 1.6199,0 3.01252,-0.10255 4.17817,-0.33235 1.15249,-0.21846 2.15782,-0.50307 2.99119,-0.9021 1.06206,-0.52759 1.88168,-1.27558 2.46891,-2.18405 0.61979,-0.94253 0.90208,-2.18694 0.90211,-3.70337 -2e-5,-0.79078 0.009,-1.66001 0,-2.61136 -0.009,-0.94823 0,-1.88704 0,-2.80127 -2e-5,-1.34731 -0.009,-2.7339 0,-4.22564 0.0152,-1.18321 0.0445,-1.62657 0.0476,-1.99413 7.9e-4,-0.0962 0,-0.47994 0,-0.52227 l 0,-0.56975 -0.56975,0 c -0.18985,2e-5 -0.34779,0 -0.52227,0 -0.0951,0 -0.19426,0 -0.28487,0 -0.24755,2e-5 -0.50299,2e-5 -0.75967,0 z m 7.88155,0 c -0.40463,0.017 -0.65953,0.0384 -0.80715,0.0476 l -0.42731,0.0476 -0.0476,0.42731 -0.23739,1.70925 -0.095,0.61723 0.66471,-0.0476 c 0.49594,-0.0255 0.85266,-0.0304 1.1395,-0.0476 0.27904,-0.0161 0.63918,-0.0476 1.04454,-0.0476 0.64195,0 1.19814,0.0315 1.66177,0.095 0.4586,0.055 0.87696,0.14965 1.23446,0.28487 0.50993,0.19163 0.85857,0.47994 1.09202,0.80715 0.14707,0.20617 0.20684,0.5518 0.28487,0.85462 -1.0042,0.0912 -2.01916,0.17746 -2.84875,0.33236 -1.01102,0.18183 -1.82397,0.41687 -2.46891,0.6647 -1.01218,0.38712 -1.81223,0.89823 -2.42144,1.56682 -0.61349,0.67513 -0.94955,1.49873 -0.94958,2.42144 0,0.86764 0.27977,1.68934 0.80714,2.32647 0.51609,0.61104 1.19553,1.08274 1.99413,1.42438 0.60035,0.25917 1.29558,0.43708 2.08908,0.56975 0.7891,0.13188 1.54463,0.23738 2.32648,0.2374 1.20989,0 2.2085,-0.0339 2.99119,-0.095 0.76156,-0.0509 1.15282,-0.083 1.28194,-0.095 l 0.52227,-0.0476 0,-0.47479 c -2e-5,-0.0852 -0.009,-0.81354 0,-2.13656 0.008,-1.17917 -9.3e-4,-2.8094 0,-4.60548 l 0,-0.56975 0,-0.52227 -0.095,0 c -0.0384,-0.96642 -0.0757,-1.84664 -0.33236,-2.46892 -0.29604,-0.72701 -0.74193,-1.3559 -1.32941,-1.85169 -0.63217,-0.5272 -1.41005,-0.87325 -2.32648,-1.09202 -0.89568,-0.22512 -1.92204,-0.33234 -3.03867,-0.33235 -0.71238,1e-5 -1.27811,-0.0266 -1.70925,0 z m -118.17566,0.095 c -1.26658,1e-5 -2.46084,0.10787 -3.6559,0.37983 -1.19055,0.26429 -2.25006,0.66029 -3.13362,1.18698 -0.98095,0.58074 -1.76123,1.35576 -2.37396,2.279 -0.62325,0.92986 -0.9496,1.96938 -0.94959,3.08615 0,1.23376 0.31712,2.41031 0.99707,3.4185 0.67742,1.00445 1.62245,1.7792 2.80127,2.37396 0.86275,0.43039 1.83058,0.77705 2.89623,0.99706 1.0651,0.21111 2.20517,0.28486 3.4185,0.28488 0.11,0 0.27146,-2e-5 0.42731,0 0.16504,0 0.25906,-2e-5 0.33235,0 l 0.52227,0 0,-0.4748 0.14237,-1.23446 0.0476,0 0,-0.47479 0.0476,-0.52227 -0.0476,0 0,-0.0476 -0.47479,0 -0.0476,0 -0.47479,-0.0476 0,0.0476 c -0.14084,10e-6 -0.26252,10e-6 -0.37983,0 -0.87347,10e-6 -1.73955,-0.0675 -2.5164,-0.18992 -0.76724,-0.12094 -1.40164,-0.30355 -1.99412,-0.56975 l -0.0476,0 c -0.75175,-0.33225 -1.30839,-0.7812 -1.75673,-1.3769 -0.42236,-0.57882 -0.66472,-1.2802 -0.6647,-2.18404 0,-0.71776 0.23703,-1.38988 0.71218,-2.0416 0.47004,-0.64472 1.07662,-1.11692 1.89917,-1.42438 l 0.0476,0 c 0.6432,-0.2492 1.26932,-0.41784 1.94665,-0.52227 0.68513,-0.11228 1.56678,-0.1899 2.56388,-0.18991 0.0643,1e-5 0.11653,1e-5 0.18991,0 0.0825,1e-5 0.17316,1e-5 0.2374,0 l 0.56975,0 -0.0476,-0.56975 -0.14236,-1.70925 0,-0.4748 -0.52227,0 c -0.0641,2e-5 -0.12747,2e-5 -0.23739,0 -0.10089,2e-5 -0.2316,2e-5 -0.33236,0 z m 155.96908,0 c -1.2666,1e-5 -2.46082,0.10787 -3.6559,0.37983 -1.19056,0.26429 -2.25006,0.66029 -3.13362,1.18698 -0.98096,0.58074 -1.80873,1.35576 -2.42144,2.279 -0.62326,0.92986 -0.90214,1.96936 -0.90211,3.08615 0,1.23376 0.3171,2.4103 0.99707,3.4185 0.67741,1.00445 1.62249,1.7792 2.80127,2.37396 0.86277,0.43039 1.83063,0.77705 2.89623,0.99706 1.06513,0.21111 2.20516,0.28486 3.4185,0.28488 0.11,0 0.27144,-2e-5 0.42731,0 0.16501,0 0.25905,-2e-5 0.33235,0 l 0.4748,0 0.0476,-0.4748 0.14236,-1.23446 0.0476,0 0,-0.47479 0.0476,-0.52227 -0.0476,0 0,-0.0476 -0.47479,0 -0.0476,0 -0.47479,-0.0476 0,0.0476 c -0.14464,10e-6 -0.30736,10e-6 -0.42731,0 -0.87344,10e-6 -1.69207,-0.0675 -2.46892,-0.18992 -0.76725,-0.12094 -1.44908,-0.30355 -2.04161,-0.56975 -0.75173,-0.33225 -1.30838,-0.7812 -1.75672,-1.3769 -0.42236,-0.5788 -0.66471,-1.28019 -0.66471,-2.18404 0,-0.71778 0.23703,-1.3899 0.71218,-2.0416 0.47009,-0.64475 1.0766,-1.11694 1.89917,-1.42438 0.64315,-0.2492 1.31679,-0.41784 1.99413,-0.52227 0.68509,-0.11228 1.56679,-0.1899 2.56387,-0.18991 0.0643,1e-5 0.11653,1e-5 0.18992,0 0.0825,1e-5 0.17317,1e-5 0.23739,0 l 0.52228,0 0,-0.56975 -0.14237,-1.70925 0,-0.4748 -0.52227,0 c -0.0641,2e-5 -0.12732,2e-5 -0.23739,0 -0.10089,2e-5 -0.2316,2e-5 -0.33236,0 z m -251.30726,2.279 c 0.92298,1e-5 1.618,0.25883 2.13656,0.75967 0.37958,0.3562 0.53335,0.9411 0.71219,1.51933 l -5.9349,0 c 0.24533,-0.56594 0.4837,-1.15295 0.90211,-1.51933 0.58938,-0.52337 1.26249,-0.75967 2.18404,-0.75967 z m 14.38619,0 c 0.92295,1e-5 1.57055,0.25885 2.08908,0.75967 0.37958,0.3562 0.53333,0.94109 0.71219,1.51933 l -5.9349,0 c 0.24533,-0.56594 0.48371,-1.15295 0.90211,-1.51933 0.58941,-0.52338 1.30997,-0.75967 2.23152,-0.75967 z m 129.61814,0 c 0.92298,1e-5 1.57055,0.25885 2.08908,0.75967 0.37959,0.3562 0.53333,0.9411 0.71219,1.51933 l -5.9349,0 c 0.24534,-0.56594 0.48373,-1.15295 0.90211,-1.51933 0.58938,-0.52337 1.30998,-0.75967 2.23152,-0.75967 z m 21.36563,0 c 0.92298,1e-5 1.61795,0.25882 2.13656,0.75967 0.37957,0.3562 0.53335,0.9411 0.71219,1.51933 l -5.9349,0 c 0.24533,-0.56594 0.48369,-1.15295 0.9021,-1.51933 0.5894,-0.52337 1.26254,-0.75967 2.18405,-0.75967 z m 21.93537,0 c 0.923,1e-5 1.57046,0.2588 2.08909,0.75967 0.37957,0.3562 0.53334,0.9411 0.71218,1.51933 l -5.93489,0 c 0.24532,-0.56594 0.48369,-1.15296 0.9021,-1.51933 0.58938,-0.52337 1.31002,-0.75967 2.23152,-0.75967 z m 73.54524,0 c 0.923,1e-5 1.57049,0.25882 2.08908,0.75967 0.37958,0.3562 0.53332,0.94109 0.71219,1.51933 l -5.9349,0 c 0.24533,-0.56594 0.4837,-1.15295 0.90211,-1.51933 0.58936,-0.52337 1.31003,-0.75967 2.23152,-0.75967 z m -329.1731,0.095 c 0.47245,10e-6 0.94978,0.0808 1.3769,0.23739 0.43456,0.1489 0.7906,0.34559 1.09202,0.61723 l 0,0.0476 c 0.52151,0.45981 0.89267,0.98451 1.1395,1.66177 0.26246,0.69708 0.37983,1.4025 0.37983,2.13656 -10e-6,0.69946 -0.12914,1.36055 -0.37983,1.99413 -0.24849,0.62823 -0.5791,1.17617 -1.04454,1.61429 -0.32344,0.30643 -0.6982,0.5489 -1.1395,0.71219 -0.43128,0.16252 -0.90405,0.23739 -1.42438,0.23739 -0.47087,0 -0.91737,-0.0555 -1.32942,-0.18991 -0.41201,-0.14206 -0.73825,-0.36296 -1.04454,-0.61723 -0.57092,-0.47452 -0.98346,-1.0251 -1.23446,-1.66177 -0.25842,-0.6631 -0.37983,-1.37717 -0.37983,-2.18405 -10e-6,-0.69941 0.12778,-1.38865 0.37983,-2.0416 0.26013,-0.65199 0.5736,-1.12025 0.99707,-1.51933 l 0,-0.0476 c 0.37021,-0.35768 0.79038,-0.6014 1.18698,-0.75967 0.39095,-0.15597 0.84397,-0.23738 1.42437,-0.23739 z m 113.23783,0 c 0.47245,10e-6 0.90228,0.0808 1.32941,0.23739 0.43456,0.1489 0.79059,0.34559 1.09202,0.61723 l 0.0476,0.0476 c 0.5215,0.45981 0.8927,0.98453 1.1395,1.66177 0.26248,0.69707 0.3798,1.40248 0.37983,2.13656 -1e-5,0.69944 -0.12929,1.36052 -0.37983,1.99413 -0.24847,0.62821 -0.57911,1.17616 -1.04454,1.61429 -0.32344,0.30643 -0.69818,0.5489 -1.1395,0.71219 -0.43127,0.16252 -0.90402,0.23739 -1.42438,0.23739 -0.47084,0 -0.91734,-0.0555 -1.32941,-0.18991 -0.41202,-0.14206 -0.7857,-0.36294 -1.09203,-0.61723 -0.5709,-0.47451 -0.93594,-1.02507 -1.18697,-1.66177 -0.25841,-0.66312 -0.4273,-1.37717 -0.42732,-2.18405 0,-0.69942 0.12778,-1.38865 0.37984,-2.0416 0.26012,-0.65198 0.62108,-1.12024 1.04454,-1.51933 l 0,-0.0476 c 0.37021,-0.35767 0.74292,-0.6014 1.1395,-0.75967 0.39094,-0.15597 0.89141,-0.23738 1.47185,-0.23739 z m 159.62497,0.23739 c 0.0122,0.79648 0.0474,1.58127 0.0476,2.32648 0.008,0.70519 -0.002,1.23376 0,1.75673 4.7e-4,0.15548 0,0.38294 0,0.52227 l 0,0.52227 c -0.001,0.9068 0.008,1.77103 0,2.46892 -0.006,0.53228 -0.0454,0.66527 -0.0476,0.90211 -0.7743,-0.003 -1.54138,-0.0956 -2.23152,-0.2374 -0.70415,-0.14662 -1.28621,-0.34194 -1.80421,-0.56975 -0.75243,-0.33251 -1.31844,-0.79128 -1.75673,-1.3769 -0.41535,-0.5654 -0.66475,-1.20098 -0.6647,-2.0416 0,-0.81076 0.22853,-1.50145 0.6647,-2.13656 0.43092,-0.6274 1.04341,-1.13036 1.89917,-1.47186 0.67595,-0.26795 1.31134,-0.42771 1.89917,-0.52227 0.55338,-0.0877 1.25225,-0.13461 1.99412,-0.14236 z m -172.82418,0.33236 c 0,0.20567 -2e-5,0.41367 0,0.61723 0,0.22053 0,0.41663 0,0.61723 0,0.16974 -2e-5,0.36678 0,0.52227 l 0,0.52227 c -7.9e-4,2.09361 -0.0392,3.85885 -0.0476,4.93783 -0.006,0.83121 0.002,1.04029 0,1.32942 -0.76887,-0.0106 -1.52839,-0.0553 -2.23152,-0.18992 -0.74953,-0.15316 -1.40781,-0.37388 -1.99412,-0.66471 -0.65564,-0.3224 -1.17679,-0.76439 -1.6143,-1.32941 -0.41284,-0.53317 -0.61721,-1.17164 -0.61723,-1.94665 0,-0.8837 0.22497,-1.60293 0.66471,-2.23152 0.4438,-0.64189 1.0598,-1.1147 1.89917,-1.47185 0.52997,-0.22566 1.16967,-0.43087 1.94665,-0.56975 0.61987,-0.10955 1.30772,-0.11958 1.99412,-0.14237 z m 75.11205,4.27312 c 0.003,0.32704 0,0.67626 0,0.94959 -2e-5,0.2301 0,0.3812 0,0.56975 l 0,0.52227 0,0.52227 c -0.002,0.55706 0.006,1.10656 0,1.47185 l 0,0.0476 c 0,0.20605 0,0.20116 0,0.33235 -0.10742,0.003 -0.22903,-0.003 -0.33236,0 -0.26207,0.008 -0.48965,2e-5 -0.66471,0 -0.58777,0 -1.13232,-0.0378 -1.66177,-0.095 -0.51285,-0.0643 -0.96362,-0.15225 -1.37689,-0.28487 -0.5241,-0.16664 -0.92155,-0.39266 -1.18698,-0.66471 -0.24044,-0.25248 -0.33237,-0.57212 -0.33236,-1.04454 0,-0.39295 0.1296,-0.63314 0.42732,-0.90211 0.3525,-0.31122 0.73649,-0.55593 1.18698,-0.71218 0.63742,-0.22798 1.44017,-0.39851 2.42143,-0.52227 0.72982,-0.0981 1.12229,-0.15526 1.51934,-0.18992 z m 112.33572,0 c 0.003,0.32704 -3e-5,0.6762 0,0.94959 -2e-5,0.2301 0,0.3812 0,0.56975 l 0,0.52227 0,0.52227 c -0.002,0.55706 0.006,1.10653 0,1.47185 l 0,0.0476 c 0,0.20605 0,0.2012 0,0.33235 -0.10742,0.003 -0.22901,-0.003 -0.33236,0 -0.26208,0.008 -0.48962,2e-5 -0.66471,0 -0.58776,0 -1.13238,-0.0378 -1.66177,-0.095 -0.51285,-0.0643 -0.96365,-0.15225 -1.37689,-0.28487 -0.52408,-0.16664 -0.92154,-0.39264 -1.18698,-0.66471 -0.24044,-0.25248 -0.33239,-0.57212 -0.33236,-1.04454 0,-0.39295 0.1296,-0.63314 0.42732,-0.90211 0.35248,-0.3112 0.73652,-0.55593 1.18698,-0.71218 0.63743,-0.22798 1.44019,-0.39851 2.42143,-0.52227 0.72979,-0.0981 1.12227,-0.15526 1.51934,-0.18992 z"
       inkscape:connector-curvature="0" />
    <path
       i:knockout="Off"
       d="m 797.879,399.71104 -10.37613,0 0,-90.17919 c 0,-0.61207 -0.20402,-1.5739 -0.64122,-2.8272 -0.84525,-2.41916 -2.36087,-4.2554 -4.57601,-5.5087 -1.77794,-0.96182 -3.93477,-1.42817 -6.44136,-1.42817 -0.11654,0 -0.32061,0.0583 -0.64122,0.14571 -0.32061,0.11668 -0.52464,0.17489 -0.64124,0.17489 -0.61206,0 -1.57389,0.3789 -2.8272,1.10756 -2.09854,1.1367 -3.58502,2.82721 -4.43026,5.04235 -0.61208,1.36988 -0.93269,2.47744 -0.93269,3.29355 l 0,90.17919 -10.37615,0 0,-90.17919 c 0,-0.0875 -0.0583,-0.55378 -0.17487,-1.39903 -0.32061,-1.28246 -0.90355,-2.53576 -1.74879,-3.78905 -1.89452,-2.62319 -4.28453,-4.16795 -7.25747,-4.57599 0.32061,0 -0.40805,0 -2.18599,0 -0.11653,0 -0.32061,0 -0.64122,0 -0.32061,0 -0.52464,0 -0.61208,0 -0.52462,0 -1.48647,0.3789 -2.85635,1.10756 -3.06037,1.57391 -4.78002,4.05136 -5.21722,7.43235 -0.0875,0.11653 -0.1457,0.26231 -0.1457,0.46635 l 0,90.937 -10.72591,0 0,-90.47066 c 0,-2.09855 0.46635,-4.31368 1.39904,-6.61626 0.43718,-0.96183 1.02012,-2.04025 1.74878,-3.32269 1.45733,-2.62319 3.7016,-4.86746 6.70369,-6.70369 2.97294,-1.83622 6.12076,-2.85636 9.38517,-3.06038 0.81611,-0.11653 1.98197,-0.17488 3.46843,-0.1457 0.0874,-0.0292 0.34976,0.0292 0.78695,0.1457 0.40805,0.0874 0.67038,0.1457 0.78695,0.1457 0.93269,0 2.71063,0.52464 5.36296,1.57391 0.40805,0.11653 0.87439,0.32061 1.39904,0.64122 1.80708,1.04928 3.70159,2.62319 5.68356,4.72174 1.69049,-1.77794 3.14782,-3.08953 4.43026,-3.93479 3.35185,-2.21512 7.72382,-3.32269 13.05762,-3.29355 0.11653,-0.0292 0.37891,0.0292 0.78696,0.14571 0.43718,0.0874 0.69951,0.1457 0.81609,0.1457 0.93269,0 2.62319,0.46635 5.04235,1.42819 5.56697,2.21511 9.29773,6.03332 11.19225,11.51284 0.93268,2.82722 1.39901,5.04234 1.39901,6.61626 l 0,90.47066 0,0 0,0 z"
       id="path2594"
       style="clip-rule:evenodd;display:inline;fill:#bfff80;fill-rule:evenodd;filter:url(#filter4270)"
       inkscape:connector-curvature="0" />
    <polygon
       transform="matrix(3.6433095,0,0,3.6433095,339.66728,250.48109)"
       i:knockout="Off"
       points="131.432,40.96 128.488,40.96 128.488,23.656 128.488,23.656 131.432,23.656 "
       id="polygon2596"
       style="clip-rule:evenodd;display:inline;fill:#bfff80;fill-rule:evenodd;filter:url(#filter4270)" />
    <path
       i:knockout="Off"
       d="m 870.04569,399.71104 -10.37615,0 0,-42.72873 c 0,-0.20403 -0.062,-0.72866 -0.17488,-1.57391 -0.84523,-3.99306 -3.29355,-6.55796 -7.40319,-7.72382 -0.64122,-0.20403 -1.89818,-0.32061 -3.78906,-0.32061 -0.11653,0 -0.34975,0.0583 -0.69951,0.17488 -0.37891,0.11653 -0.55014,0.1457 -0.55014,0.1457 -0.52828,0 -1.5484,0.37891 -3.00209,1.10758 -2.85635,1.36988 -4.5177,3.78904 -5.04234,7.25746 -0.11653,0.11653 -0.17852,0.26231 -0.17852,0.46635 l 0,43.19507 -10.72225,0 0,-63.04383 10.72225,0 c -0.0839,0.96548 -0.0839,1.77794 0,2.5066 3.61416,-1.66133 7.46514,-2.5066 11.5748,-2.5066 0.11289,0 0.4044,0.062 0.96183,0.17854 0.52827,0.0839 0.84525,0.14206 0.93269,0.14206 2.21513,0 4.9294,0.99097 8.07357,3.00208 2.65598,1.57755 4.78367,3.67245 6.35394,6.29928 2.21512,3.46844 3.32269,6.84941 3.32269,10.08468 l 0,43.33716 -0.003,0 z"
       id="path2598"
       style="clip-rule:evenodd;display:inline;fill:#bfff80;fill-rule:evenodd;filter:url(#filter4270)"
       inkscape:connector-curvature="0" />
    <path
       i:knockout="Off"
       d="m 901.26156,347.36397 -10.40529,0 0,32.49833 c 0.11653,0.29146 0.23317,0.78694 0.32061,1.39902 0.75781,3.381 2.80171,5.68722 6.14991,6.93687 0.72866,0.20401 1.13671,0.32061 1.2533,0.32061 0.11654,0 0.14571,0.0583 0.14571,0.1457 0,0 0.0583,0 0.17487,0 0.11653,0 0.32063,0.0583 0.64124,0.17488 0.29147,0.11653 0.52828,0.1457 0.61208,0.1457 0.11653,0 0.29145,0 0.55376,0 0.26233,0 0.43721,0 0.5538,0 l 0,10.7259 c -4.31732,-0.20766 -8.16101,-1.31159 -11.51286,-3.29355 -2.53573,-1.48647 -4.6343,-3.58502 -6.29928,-6.32479 -2.21149,-3.55586 -3.31906,-7.05344 -3.31906,-10.40164 l 0,-74.56034 10.72226,0 0,31.36162 10.40529,0 0,10.87163 0.003,0 0,0 z"
       id="path2600"
       style="clip-rule:evenodd;display:inline;fill:#bfff80;fill-rule:evenodd;filter:url(#filter4270)"
       inkscape:connector-curvature="0" />
    <path
       i:knockout="Off"
       d="m 811.5487,330.10925 c -2.15683,0 -4.10964,-1.66134 -4.10964,-3.90561 l 0,-0.96185 0,0 0,-11.83346 -1.195,0 0,-4.02223 6.26649,0.0292 0.93269,0 c 2.18597,0 4.10964,1.6322 4.10964,3.87648 l 0,16.81751 -6.00418,0 0,0 0,0 z"
       id="path2604"
       style="clip-rule:evenodd;display:inline;fill:#bfff80;fill-rule:evenodd;filter:url(#filter4270)"
       inkscape:connector-curvature="0" />
    <g
       id="g3524"
       style="fill:#898989;filter:url(#filter4270);fill-opacity:1"
       transform="matrix(1.5193335,0,0,1.5193335,-49.387944,-246.89101)">
      <polygon
         style="clip-rule:evenodd;display:inline;fill:#898989;fill-rule:evenodd;fill-opacity:1"
         id="polygon2586"
         points="66.376,40.96 64.168,40.96 64.168,23.48 64.168,23.48 66.376,23.48 "
         i:knockout="Off"
         transform="matrix(2.3979656,0,0,2.3979656,256.06967,327.36203)" />
      <path
         style="clip-rule:evenodd;display:inline;fill:#898989;fill-rule:evenodd;fill-opacity:1"
         id="path2588"
         d="m 441.94078,425.5827 -5.29471,0 0,-31.7107 c 0,-1.43877 -0.51796,-2.68572 -1.55389,-3.72164 -1.03591,-1.03592 -2.28286,-1.55148 -3.72163,-1.55148 -1.45797,0 -2.70491,0.51795 -3.74083,1.55148 -1.03592,1.03592 -1.55389,2.28287 -1.55389,3.72164 l 0,31.7107 -5.27552,0 0,-31.7107 c 0,-2.89674 1.01674,-5.39063 3.08858,-7.46006 2.07184,-2.07185 4.56573,-3.11017 7.48166,-3.11017 2.89674,0 5.39062,1.03832 7.46246,3.11017 2.07184,2.06943 3.10777,4.56332 3.10777,7.46006 l 0,31.7107 0,0 z"
         i:knockout="Off"
         inkscape:connector-curvature="0" />
      <path
         style="clip-rule:evenodd;display:inline;fill:#898989;fill-rule:evenodd;fill-opacity:1"
         id="path2590"
         d="m 467.03309,415.01007 c 0,2.91592 -1.03592,5.39063 -3.08858,7.46247 -2.07184,2.06945 -4.56573,3.10776 -7.48165,3.10776 -2.89674,0 -5.39063,-1.03831 -7.46247,-3.10776 -2.07184,-2.07184 -3.10776,-4.54655 -3.10776,-7.46247 l 0,-31.7083 5.2947,0 0,31.7107 c 0,1.45796 0.51796,2.68572 1.55388,3.72164 1.03592,1.03832 2.28287,1.55389 3.72165,1.55389 1.45796,0 2.7049,-0.51797 3.74082,-1.55389 1.03592,-1.03592 1.55388,-2.26128 1.55388,-3.72164 l 0,-31.7107 5.27553,0 0,31.7083 0,0 z"
         i:knockout="Off"
         inkscape:connector-curvature="0" />
      <polygon
         style="clip-rule:evenodd;display:inline;fill:#898989;fill-rule:evenodd;fill-opacity:1"
         id="polygon2592"
         points="92.056,40.96 89.624,40.96 92.824,32.144 89.624,23.328 92.056,23.328 94.04,28.8 96.024,23.328 98.448,23.328 95.248,32.144 98.448,40.96 98.448,40.96 96.024,40.96 94.04,35.488 "
         i:knockout="Off"
         transform="matrix(2.3979656,0,0,2.3979656,256.06967,327.36203)" />
      <path
         sodipodi:nodetypes="cccccccccccccc"
         style="clip-rule:evenodd;display:inline;fill:#898989;fill-rule:evenodd;fill-opacity:1"
         id="path2602"
         d="m 412.71809,380.13646 c -1.41959,0 -2.68572,-1.09348 -2.68572,-2.57062 l 0,-0.63306 0,0 0,-7.7886 -0.80572,0 0,-2.64735 2.6916,0.0192 0.61388,0 c 1.41959,0 2.68571,1.07429 2.68571,2.55144 l 0,11.06901 -2.49975,0 0,0 0,0 z"
         i:knockout="Off"
         inkscape:connector-curvature="0" />
      <path
         sodipodi:nodetypes="ccscccccccccc"
         id="polygon3803"
         d="m 388.46926,352.8768 0,62 c 0,2.91592 1.02191,5.39691 3.09375,7.46875 1.94604,1.94379 4.27802,2.97534 6.96875,3.09375 l 0,0.0313 0.53125,0 5.375,0 0,-5.3125 -5.375,0 c -1.72641,0 -2.71408,-0.49039 -3.75,-1.46875 -1.03591,-0.95679 -1.5625,-2.1067 -1.5625,-3.46875 l 0,-62.34375 -5.28125,0 z"
         style="display:inline;fill:#898989;fill-rule:evenodd;fill-opacity:1"
         inkscape:connector-curvature="0" />
    </g>
    <path
       style="display:inline;overflow:visible;visibility:visible;opacity:0.26000001;fill:#000000;fill-opacity:1;fill-rule:evenodd;stroke:none;stroke-width:1;marker:none;filter:url(#filter3573);enable-background:accumulate"
       d="m 331.79042,510.93347 c -21.29012,0 -39.7658,-16.13992 -39.7658,-37.41096 l -0.0191,-21.99227 0,-6.58604 -13.49776,0 0,-36.6513 56.92036,0.26806 17.80557,0.0383 c 21.30926,0 39.76579,16.12071 39.76579,37.41086 l 0,64.92334 -61.20904,0 0,0 0,0 z"
       id="path3543"
       transform="matrix(1.5845577,0,0,1.5845577,-120.57357,-383.65604)"
       sodipodi:nodetypes="ccccccccccccc"
       inkscape:connector-curvature="0" />
    <path
       style="display:inline;fill:url(#linearGradient3538);fill-opacity:1;fill-rule:evenodd;filter:url(#filter4270)"
       d="m 489.70964,399.22832 c 0,-22.36495 0,-75.12376 0,-75.12376 0,-25.09796 -22.00998,-45.44296 -49.1668,-45.44296 l -28.18616,0 0,-0.0606 -76.23283,-0.33309 0,27.41018 c 0,0 6.2245,0 11.70221,0 8.16841,0 9.61144,5.6388 9.61144,13.44354 l 0.0606,48.45811 c 0,25.09797 22.01007,45.44294 49.13658,45.44294 l 66.97531,0 c 8.58628,0 16.09968,-5.43762 16.09968,-13.79439 z"
       id="path2576"
       sodipodi:nodetypes="cccccccsccccc"
       inkscape:connector-curvature="0" />
    <path
       style="display:inline;opacity:0.17514122;fill:url(#linearGradient4136);fill-opacity:1;fill-rule:nonzero;filter:url(#filter3291)"
       d="m 142.9375,500.53125 c -10.75182,-7.40935 -18.36682,-15.92034 -24.78125,-27.1875 -12.64444,-23.35809 -9.68791,-34.95326 -41,-37.6875 -9.036289,0 -15.051217,-2 -24.5625,-2 l 0,3.3125 c 10e-7,10e-6 3.758681,1.90749 7.0625,1.90749 4.926697,1e-5 5.78125,3.41765 5.78125,8.125 l 0.03125,29.15501 c -3e-6,15.13758 13.295158,27.40625 29.65625,27.40625 l 40.375,0 c 2.96358,0 5.62572,-1.16787 7.4375,-3.03125 z"
       id="path3419"
       sodipodi:nodetypes="cccccsccccc"
       transform="matrix(1.5930206,0,0,1.5930206,255.35997,-391.78162)"
       inkscape:connector-curvature="0" />
    <path
       style="display:inline;overflow:visible;visibility:visible;fill:#000000;fill-opacity:0.08040203;fill-rule:evenodd;stroke:none;stroke-width:4.7667098;marker:none;filter:url(#filter3546);enable-background:accumulate"
       d="m 105.51844,438.54009 c -3.83671,0 -7.245744,1.42445 -9.984837,4.1914 -2.737725,2.76548 -4.1752,6.21796 -4.17519,10.11421 l 0,19.69466 8.932957,0 0,-19.69466 c 0,-1.49338 0.48728,-2.66108 1.55355,-3.73818 1.06977,-1.08055 2.2026,-1.56971 3.67352,-1.56971 1.50175,0 2.61758,0.4867 3.68969,1.56971 1.06628,1.0771 1.55356,2.2448 1.55356,3.73818 l 0,19.69466 8.93297,0 0,-19.69466 c 0,-1.49338 0.48728,-2.66108 1.55356,-3.73818 1.07211,-1.08301 2.18794,-1.56971 3.68971,-1.56971 1.47093,0 2.60373,0.48916 3.6735,1.56971 1.06627,1.0771 1.55356,2.2448 1.55356,3.73818 l 0.0486,23.01222 c 0,4.90894 -4.67486,9.04618 -10.68071,9.04618 l -28.805549,-0.11326 c -4.634707,0 -8.593128,-4.51117 -8.593128,-10.30852 l 0,-43.33528 -8.447462,0 0,45.00209 c 0,4.77471 1.747181,8.96178 5.146164,12.3476 2.905193,2.8676 6.399074,4.56445 10.324689,4.98427 l 0,0.16191 32.074486,0 c 4.92872,0 9.25884,-1.83265 12.75212,-5.38904 l 0.0162,0 c 2.97102,-3.05245 4.70787,-6.70998 5.12997,-10.82624 l -0.0324,-24.58193 c 0,-3.89625 -1.43744,-7.34873 -4.17521,-10.11421 -2.73906,-2.76695 -6.14812,-4.1914 -9.98482,-4.1914 -3.76604,0 -7.06133,1.40042 -9.72593,3.96479 -2.65681,-2.56014 -5.92908,-3.96479 -9.69356,-3.96479 z"
       id="path2620"
       sodipodi:nodetypes="csccccsssccccsssccccccccccccccccsscc"
       transform="matrix(1.5930206,0,0,1.5930206,255.35997,-391.78162)"
       inkscape:connector-curvature="0" />
    <path
       sodipodi:nodetypes="csccccsssccccssscccccccccccccccsscc"
       style="display:inline;overflow:visible;visibility:visible;fill:#ffffff;fill-opacity:1;fill-rule:evenodd;stroke:none;stroke-width:1;marker:none;filter:url(#filter4270);enable-background:accumulate"
       d="m 422.3166,307.1953 c -6.11196,0 -11.54262,2.26917 -15.90606,6.67699 -4.36126,4.40546 -6.65119,9.90534 -6.65117,16.11213 l 0,31.37401 14.2304,0 0,-31.37401 c 0,-2.37897 0.77624,-4.23915 2.47482,-5.95499 1.70418,-1.72133 3.5088,-2.50058 5.85201,-2.50058 2.39231,0 4.16985,0.77533 5.87775,2.50058 1.6986,1.71584 2.47486,3.57602 2.47486,5.95499 l 0,31.37401 14.23038,0 0,-31.37401 c 0,-2.37897 0.77626,-4.23915 2.47487,-5.95499 1.70788,-1.72525 3.48543,-2.50058 5.87779,-2.50058 2.34322,0 4.14779,0.77925 5.85194,2.50058 1.6986,1.71584 2.47485,3.57602 2.47485,5.95499 l 0.0773,36.65895 c 0,7.82004 -7.44715,14.41074 -17.01459,14.41074 l -45.88782,-0.18042 c -7.38319,0 -13.68903,-7.18638 -13.68903,-16.42168 l 0,-69.03399 -13.45698,0 0,71.68925 c 0,7.60621 2.7833,14.2763 8.19794,19.66999 4.62803,4.56814 10.19386,7.5293 16.44743,8.19808 l 51.09533,-1.2e-4 c 7.85155,0 14.74951,-2.91945 20.31439,-8.58484 l 0.0258,0 c 4.73287,-4.86263 7.49973,-10.68914 8.17214,-17.24643 l -0.0515,-39.15953 c 0,-6.20679 -2.28985,-11.70667 -6.65117,-16.11213 -4.36339,-4.40782 -9.7941,-6.67699 -15.90603,-6.67699 -5.99937,0 -11.24884,2.2309 -15.49361,6.31599 -4.23237,-4.07836 -9.44514,-6.31599 -15.44204,-6.31599 z"
       id="path4130"
       inkscape:connector-curvature="0" />
    <path
       style="display:inline;overflow:visible;visibility:visible;opacity:0.3;fill:#52a800;fill-opacity:1;fill-rule:evenodd;stroke:none;stroke-width:1;marker:none;filter:url(#filter4270);enable-background:accumulate"
       d="m 413.94817,380.92138 0,14.05384 33.42533,0 c 7.85152,0 14.70873,-2.92833 20.2736,-8.59373 l 0.0476,0 c 4.73289,-4.86264 7.49401,-10.67765 8.16642,-17.23494 l 0,-7.9765 -14.19627,0 0,5.4601 c 0,7.82009 -7.43012,14.38619 -16.99756,14.38619 l -30.71901,-0.095 z"
       id="path4132"
       inkscape:connector-curvature="0" />
    <path
       id="path6141"
       style="display:inline;overflow:visible;visibility:visible;fill:#ffffff;fill-opacity:1;fill-rule:evenodd;stroke:none;stroke-width:1;marker:none;filter:url(#filter4270);enable-background:accumulate"
       d="m 406.18934,423.42579 c -32.34679,0 -60.4175,-24.52192 -60.4175,-56.83973 l -0.029,-39.24078 0,-10.00638 -20.50759,0 0,-49.85837 86.481,0.40727 27.05261,0.0582 c 32.37586,0 60.41748,24.49274 60.41748,56.83956 l 0,98.64022 -92.99694,0 0,0 0,0 z m 79.81965,-26.46021 c 0,-21.48857 0,-72.18001 0,-72.18001 0,-24.11448 -21.1475,-43.66226 -47.24019,-43.66226 l -27.08167,0 0,-0.0582 -73.2456,-0.32005 0,23.41653 c 0,0 2.9419,0 8.20496,0 5.57049,0 12.27348,5.23482 12.27348,12.91674 l 0.0582,49.47886 c 0,24.11449 21.14761,43.66224 47.21117,43.66224 l 64.35083,0 c 8.24982,0 15.46881,-5.22455 15.46881,-13.25386 z"
       sodipodi:nodetypes="ccccccccccccccccccccsccccc"
       inkscape:connector-curvature="0" />
  </g>
</svg>
